{
    "asset" : {
        "generator" : "Khronos glTF Blender I/O v1.7.33",
        "version" : "2.0"
    },
    "scene" : 0,
    "scenes" : [
        {
            "name" : "Scene",
            "nodes" : [
                0
            ]
        }
    ],
    "nodes" : [
        {
            "mesh" : 0,
            "name" : "Cube",
            "scale" : [
                0.23699221014976501,
                0.14954601228237152,
                -0.18239235877990723
            ]
        }
    ],
    "materials" : [
        {
            "doubleSided" : true,
            "name" : "cloud",
            "pbrMetallicRoughness" : {
                "baseColorFactor" : [
                    0.6883633732795715,
                    0.7954211235046387,
                    1,
                    1
                ],
                "metallicFactor" : 0,
                "roughnessFactor" : 0.5228800177574158
            }
        }
    ],
    "meshes" : [
        {
            "name" : "Cube.001",
            "primitives" : [
                {
                    "attributes" : {
                        "POSITION" : 0,
                        "NORMAL" : 1,
                        "TEXCOORD_0" : 2
                    },
                    "indices" : 3,
                    "material" : 0
                }
            ]
        }
    ],
    "accessors" : [
        {
            "bufferView" : 0,
            "componentType" : 5126,
            "count" : 448,
            "max" : [
                3.428093433380127,
                2.2148678302764893,
                3.3710238933563232
            ],
            "min" : [
                -3.5443577766418457,
                -2.1973893642425537,
                -1.8310211896896362
            ],
            "type" : "VEC3"
        },
        {
            "bufferView" : 1,
            "componentType" : 5126,
            "count" : 448,
            "type" : "VEC3"
        },
        {
            "bufferView" : 2,
            "componentType" : 5126,
            "count" : 448,
            "type" : "VEC2"
        },
        {
            "bufferView" : 3,
            "componentType" : 5123,
            "count" : 672,
            "type" : "SCALAR"
        }
    ],
    "bufferViews" : [
        {
            "buffer" : 0,
            "byteLength" : 5376,
            "byteOffset" : 0
        },
        {
            "buffer" : 0,
            "byteLength" : 5376,
            "byteOffset" : 5376
        },
        {
            "buffer" : 0,
            "byteLength" : 3584,
            "byteOffset" : 10752
        },
        {
            "buffer" : 0,
            "byteLength" : 1344,
            "byteOffset" : 14336
        }
    ],
    "buffers" : [
        {
            "byteLength" : 15680,
            "uri" : "data:application/octet-stream;base64,"
        }
    ]
}
