{
    "asset" : {
        "generator" : "Khronos glTF Blender I/O v1.7.33",
        "version" : "2.0"
    },
    "scene" : 0,
    "scenes" : [
        {
            "name" : "Scene",
            "nodes" : [
                0
            ]
        }
    ],
    "nodes" : [
        {
            "mesh" : 0,
            "name" : "Cube",
            "translation" : [
                -0.0063250064849853516,
                0.8784470558166504,
                -0.9007480144500732
            ]
        }
    ],
    "materials" : [
        {
            "doubleSided" : true,
            "name" : "Material",
            "pbrMetallicRoughness" : {
                "baseColorFactor" : [
                    0.8000000715255737,
                    0.7686082124710083,
                    0.010206065140664577,
                    1
                ],
                "metallicFactor" : 0,
                "roughnessFactor" : 0.4000000059604645
            }
        },
        {
            "doubleSided" : true,
            "name" : "Material.001",
            "pbrMetallicRoughness" : {
                "baseColorFactor" : [
                    0.8000000715255737,
                    0.6661385297775269,
                    0.019252635538578033,
                    1
                ],
                "metallicFactor" : 0,
                "roughnessFactor" : 0.4000000059604645
            }
        },
        {
            "doubleSided" : true,
            "name" : "Material.002",
            "pbrMetallicRoughness" : {
                "baseColorFactor" : [
                    0.674293577671051,
                    0.8000000715255737,
                    0.1215597465634346,
                    1
                ],
                "metallicFactor" : 0,
                "roughnessFactor" : 0.4000000059604645
            }
        },
        {
            "doubleSided" : true,
            "name" : "Material.003",
            "pbrMetallicRoughness" : {
                "baseColorFactor" : [
                    0.8000000715255737,
                    0.6454823017120361,
                    0.023987410590052605,
                    1
                ],
                "metallicFactor" : 0,
                "roughnessFactor" : 0.4000000059604645
            }
        },
        {
            "doubleSided" : true,
            "name" : "Material.004",
            "pbrMetallicRoughness" : {
                "baseColorFactor" : [
                    0.8000000715255737,
                    0.5411206483840942,
                    0.019296439364552498,
                    1
                ],
                "metallicFactor" : 0,
                "roughnessFactor" : 0.4000000059604645
            }
        },
        {
            "doubleSided" : true,
            "name" : "Material.005",
            "pbrMetallicRoughness" : {
                "baseColorFactor" : [
                    0.8000000715255737,
                    0.6998338103294373,
                    0.029791174456477165,
                    1
                ],
                "metallicFactor" : 0,
                "roughnessFactor" : 0.4000000059604645
            }
        }
    ],
    "meshes" : [
        {
            "name" : "Cube",
            "primitives" : [
                {
                    "attributes" : {
                        "POSITION" : 0,
                        "NORMAL" : 1,
                        "TEXCOORD_0" : 2
                    },
                    "indices" : 3,
                    "material" : 0
                },
                {
                    "attributes" : {
                        "POSITION" : 4,
                        "NORMAL" : 5,
                        "TEXCOORD_0" : 6
                    },
                    "indices" : 7,
                    "material" : 1
                },
                {
                    "attributes" : {
                        "POSITION" : 8,
                        "NORMAL" : 9,
                        "TEXCOORD_0" : 10
                    },
                    "indices" : 11,
                    "material" : 2
                },
                {
                    "attributes" : {
                        "POSITION" : 12,
                        "NORMAL" : 13,
                        "TEXCOORD_0" : 14
                    },
                    "indices" : 15,
                    "material" : 3
                },
                {
                    "attributes" : {
                        "POSITION" : 16,
                        "NORMAL" : 17,
                        "TEXCOORD_0" : 18
                    },
                    "indices" : 19,
                    "material" : 4
                },
                {
                    "attributes" : {
                        "POSITION" : 20,
                        "NORMAL" : 21,
                        "TEXCOORD_0" : 22
                    },
                    "indices" : 23,
                    "material" : 5
                }
            ]
        }
    ],
    "accessors" : [
        {
            "bufferView" : 0,
            "componentType" : 5126,
            "count" : 100,
            "max" : [
                1.0238893032073975,
                1.7394871711730957,
                1.1695406436920166
            ],
            "min" : [
                -0.7656364440917969,
                -1.7142908573150635,
                -2.249957799911499
            ],
            "type" : "VEC3"
        },
        {
            "bufferView" : 1,
            "componentType" : 5126,
            "count" : 100,
            "type" : "VEC3"
        },
        {
            "bufferView" : 2,
            "componentType" : 5126,
            "count" : 100,
            "type" : "VEC2"
        },
        {
            "bufferView" : 3,
            "componentType" : 5123,
            "count" : 120,
            "type" : "SCALAR"
        },
        {
            "bufferView" : 4,
            "componentType" : 5126,
            "count" : 40,
            "max" : [
                0.2706078290939331,
                0.8530694246292114,
                -0.1650313138961792
            ],
            "min" : [
                -2.393184185028076,
                -1.5911568403244019,
                -2.2334070205688477
            ],
            "type" : "VEC3"
        },
        {
            "bufferView" : 5,
            "componentType" : 5126,
            "count" : 40,
            "type" : "VEC3"
        },
        {
            "bufferView" : 6,
            "componentType" : 5126,
            "count" : 40,
            "type" : "VEC2"
        },
        {
            "bufferView" : 7,
            "componentType" : 5123,
            "count" : 60,
            "type" : "SCALAR"
        },
        {
            "bufferView" : 8,
            "componentType" : 5126,
            "count" : 40,
            "max" : [
                -1.2598673105239868,
                0.8830307126045227,
                -0.23193815350532532
            ],
            "min" : [
                -2.5661919116973877,
                -0.9840036630630493,
                -1.3008606433868408
            ],
            "type" : "VEC3"
        },
        {
            "bufferView" : 9,
            "componentType" : 5126,
            "count" : 40,
            "type" : "VEC3"
        },
        {
            "bufferView" : 10,
            "componentType" : 5126,
            "count" : 40,
            "type" : "VEC2"
        },
        {
            "bufferView" : 11,
            "componentType" : 5123,
            "count" : 60,
            "type" : "SCALAR"
        },
        {
            "bufferView" : 12,
            "componentType" : 5126,
            "count" : 40,
            "max" : [
                -0.3933752179145813,
                1.327445149421692,
                1.2868555784225464
            ],
            "min" : [
                -2.5335581302642822,
                -1.4071685075759888,
                -0.4284608066082001
            ],
            "type" : "VEC3"
        },
        {
            "bufferView" : 13,
            "componentType" : 5126,
            "count" : 40,
            "type" : "VEC3"
        },
        {
            "bufferView" : 14,
            "componentType" : 5126,
            "count" : 40,
            "type" : "VEC2"
        },
        {
            "bufferView" : 15,
            "componentType" : 5123,
            "count" : 60,
            "type" : "SCALAR"
        },
        {
            "bufferView" : 16,
            "componentType" : 5126,
            "count" : 40,
            "max" : [
                -0.4871935546398163,
                1.8673566579818726,
                0.29240894317626953
            ],
            "min" : [
                -1.4885661602020264,
                -1.0520206689834595,
                -0.9034696817398071
            ],
            "type" : "VEC3"
        },
        {
            "bufferView" : 17,
            "componentType" : 5126,
            "count" : 40,
            "type" : "VEC3"
        },
        {
            "bufferView" : 18,
            "componentType" : 5126,
            "count" : 40,
            "type" : "VEC2"
        },
        {
            "bufferView" : 19,
            "componentType" : 5123,
            "count" : 60,
            "type" : "SCALAR"
        },
        {
            "bufferView" : 20,
            "componentType" : 5126,
            "count" : 40,
            "max" : [
                0.19086194038391113,
                2.082700729370117,
                0.34897977113723755
            ],
            "min" : [
                -1.2804429531097412,
                -1.0541726350784302,
                -0.7567991018295288
            ],
            "type" : "VEC3"
        },
        {
            "bufferView" : 21,
            "componentType" : 5126,
            "count" : 40,
            "type" : "VEC3"
        },
        {
            "bufferView" : 22,
            "componentType" : 5126,
            "count" : 40,
            "type" : "VEC2"
        },
        {
            "bufferView" : 23,
            "componentType" : 5123,
            "count" : 60,
            "type" : "SCALAR"
        }
    ],
    "bufferViews" : [
        {
            "buffer" : 0,
            "byteLength" : 1200,
            "byteOffset" : 0
        },
        {
            "buffer" : 0,
            "byteLength" : 1200,
            "byteOffset" : 1200
        },
        {
            "buffer" : 0,
            "byteLength" : 800,
            "byteOffset" : 2400
        },
        {
            "buffer" : 0,
            "byteLength" : 240,
            "byteOffset" : 3200
        },
        {
            "buffer" : 0,
            "byteLength" : 480,
            "byteOffset" : 3440
        },
        {
            "buffer" : 0,
            "byteLength" : 480,
            "byteOffset" : 3920
        },
        {
            "buffer" : 0,
            "byteLength" : 320,
            "byteOffset" : 4400
        },
        {
            "buffer" : 0,
            "byteLength" : 120,
            "byteOffset" : 4720
        },
        {
            "buffer" : 0,
            "byteLength" : 480,
            "byteOffset" : 4840
        },
        {
            "buffer" : 0,
            "byteLength" : 480,
            "byteOffset" : 5320
        },
        {
            "buffer" : 0,
            "byteLength" : 320,
            "byteOffset" : 5800
        },
        {
            "buffer" : 0,
            "byteLength" : 120,
            "byteOffset" : 6120
        },
        {
            "buffer" : 0,
            "byteLength" : 480,
            "byteOffset" : 6240
        },
        {
            "buffer" : 0,
            "byteLength" : 480,
            "byteOffset" : 6720
        },
        {
            "buffer" : 0,
            "byteLength" : 320,
            "byteOffset" : 7200
        },
        {
            "buffer" : 0,
            "byteLength" : 120,
            "byteOffset" : 7520
        },
        {
            "buffer" : 0,
            "byteLength" : 480,
            "byteOffset" : 7640
        },
        {
            "buffer" : 0,
            "byteLength" : 480,
            "byteOffset" : 8120
        },
        {
            "buffer" : 0,
            "byteLength" : 320,
            "byteOffset" : 8600
        },
        {
            "buffer" : 0,
            "byteLength" : 120,
            "byteOffset" : 8920
        },
        {
            "buffer" : 0,
            "byteLength" : 480,
            "byteOffset" : 9040
        },
        {
            "buffer" : 0,
            "byteLength" : 480,
            "byteOffset" : 9520
        },
        {
            "buffer" : 0,
            "byteLength" : 320,
            "byteOffset" : 10000
        },
        {
            "buffer" : 0,
            "byteLength" : 120,
            "byteOffset" : 10320
        }
    ],
    "buffers" : [
        {
            "byteLength" : 10440,
            "uri" : "data:application/octet-stream;base64,"
        }
    ]
}
