{
    "asset" : {
        "generator" : "Khronos glTF Blender I/O v1.8.19",
        "version" : "2.0"
    },
    "scene" : 0,
    "scenes" : [
        {
            "name" : "Scene",
            "nodes" : [
                0,
                1,
                2,
                3,
                4,
                5,
                6,
                7
            ]
        }
    ],
    "nodes" : [
        {
            "mesh" : 0,
            "name" : "Plane"
        },
        {
            "mesh" : 1,
            "name" : "Plane.004"
        },
        {
            "mesh" : 2,
            "name" : "Plane.005"
        },
        {
            "mesh" : 3,
            "name" : "Plane.006"
        },
        {
            "mesh" : 4,
            "name" : "Plane.007"
        },
        {
            "mesh" : 5,
            "name" : "Plane.010"
        },
        {
            "mesh" : 6,
            "name" : "Plane.009"
        },
        {
            "mesh" : 7,
            "name" : "Plane.011"
        }
    ],
    "materials" : [
        {
            "doubleSided" : true,
            "name" : "Material.011",
            "pbrMetallicRoughness" : {
                "baseColorFactor" : [
                    1,
                    0.6179993748664856,
                    0.47327375411987305,
                    1
                ],
                "metallicFactor" : 0,
                "roughnessFactor" : 0.5
            }
        },
        {
            "doubleSided" : true,
            "name" : "Material.012",
            "pbrMetallicRoughness" : {
                "baseColorFactor" : [
                    1,
                    0.5540310144424438,
                    0.41927239298820496,
                    1
                ],
                "metallicFactor" : 0,
                "roughnessFactor" : 0.5
            }
        },
        {
            "doubleSided" : true,
            "name" : "Material.013",
            "pbrMetallicRoughness" : {
                "baseColorFactor" : [
                    1,
                    0.5806760787963867,
                    0.4606163203716278,
                    1
                ],
                "metallicFactor" : 0,
                "roughnessFactor" : 0.5
            }
        },
        {
            "doubleSided" : true,
            "name" : "Material.014",
            "pbrMetallicRoughness" : {
                "baseColorFactor" : [
                    1,
                    0.502680242061615,
                    0.34303316473960876,
                    1
                ],
                "metallicFactor" : 0,
                "roughnessFactor" : 0.5
            }
        },
        {
            "doubleSided" : true,
            "name" : "Material.015",
            "pbrMetallicRoughness" : {
                "baseColorFactor" : [
                    1,
                    0.502680242061615,
                    0.34303316473960876,
                    1
                ],
                "metallicFactor" : 0,
                "roughnessFactor" : 0.5
            }
        },
        {
            "doubleSided" : true,
            "name" : "Material.018",
            "pbrMetallicRoughness" : {
                "baseColorFactor" : [
                    1,
                    0.9733070135116577,
                    0.6169676780700684,
                    1
                ],
                "metallicFactor" : 0,
                "roughnessFactor" : 0.5
            }
        },
        {
            "doubleSided" : true,
            "name" : "Material.017",
            "pbrMetallicRoughness" : {
                "baseColorFactor" : [
                    1,
                    0.7545072436332703,
                    0.658326268196106,
                    1
                ],
                "metallicFactor" : 0,
                "roughnessFactor" : 0.5
            }
        },
        {
            "doubleSided" : true,
            "name" : "Material.019",
            "pbrMetallicRoughness" : {
                "baseColorFactor" : [
                    0.9835149645805359,
                    1,
                    0.5596112012863159,
                    1
                ],
                "metallicFactor" : 0,
                "roughnessFactor" : 0.5
            }
        }
    ],
    "meshes" : [
        {
            "name" : "Plane.004",
            "primitives" : [
                {
                    "attributes" : {
                        "POSITION" : 0,
                        "NORMAL" : 1,
                        "TEXCOORD_0" : 2
                    },
                    "indices" : 3,
                    "material" : 0
                }
            ]
        },
        {
            "name" : "Plane.005",
            "primitives" : [
                {
                    "attributes" : {
                        "POSITION" : 4,
                        "NORMAL" : 5,
                        "TEXCOORD_0" : 6
                    },
                    "indices" : 7,
                    "material" : 1
                }
            ]
        },
        {
            "name" : "Plane.006",
            "primitives" : [
                {
                    "attributes" : {
                        "POSITION" : 8,
                        "NORMAL" : 9,
                        "TEXCOORD_0" : 10
                    },
                    "indices" : 11,
                    "material" : 2
                }
            ]
        },
        {
            "name" : "Plane.007",
            "primitives" : [
                {
                    "attributes" : {
                        "POSITION" : 12,
                        "NORMAL" : 13,
                        "TEXCOORD_0" : 14
                    },
                    "indices" : 15,
                    "material" : 3
                }
            ]
        },
        {
            "name" : "Plane.008",
            "primitives" : [
                {
                    "attributes" : {
                        "POSITION" : 16,
                        "NORMAL" : 17,
                        "TEXCOORD_0" : 18
                    },
                    "indices" : 19,
                    "material" : 4
                }
            ]
        },
        {
            "name" : "Plane.011",
            "primitives" : [
                {
                    "attributes" : {
                        "POSITION" : 20,
                        "NORMAL" : 21,
                        "TEXCOORD_0" : 22
                    },
                    "indices" : 23,
                    "material" : 5
                }
            ]
        },
        {
            "name" : "Plane.010",
            "primitives" : [
                {
                    "attributes" : {
                        "POSITION" : 24,
                        "NORMAL" : 25,
                        "TEXCOORD_0" : 26
                    },
                    "indices" : 27,
                    "material" : 6
                }
            ]
        },
        {
            "name" : "Plane.012",
            "primitives" : [
                {
                    "attributes" : {
                        "POSITION" : 28,
                        "NORMAL" : 29,
                        "TEXCOORD_0" : 30
                    },
                    "indices" : 31,
                    "material" : 7
                }
            ]
        }
    ],
    "accessors" : [
        {
            "bufferView" : 0,
            "componentType" : 5126,
            "count" : 144,
            "max" : [
                0.23537755012512207,
                -0.012456664815545082,
                -0.16028226912021637
            ],
            "min" : [
                0.15435120463371277,
                -0.07614080607891083,
                -0.24519525468349457
            ],
            "type" : "VEC3"
        },
        {
            "bufferView" : 1,
            "componentType" : 5126,
            "count" : 144,
            "type" : "VEC3"
        },
        {
            "bufferView" : 2,
            "componentType" : 5126,
            "count" : 144,
            "type" : "VEC2"
        },
        {
            "bufferView" : 3,
            "componentType" : 5123,
            "count" : 216,
            "type" : "SCALAR"
        },
        {
            "bufferView" : 4,
            "componentType" : 5126,
            "count" : 144,
            "max" : [
                0.21872153878211975,
                -0.03461960703134537,
                -0.1013873741030693
            ],
            "min" : [
                0.17633798718452454,
                -0.067815862596035,
                -0.1446859985589981
            ],
            "type" : "VEC3"
        },
        {
            "bufferView" : 5,
            "componentType" : 5126,
            "count" : 144,
            "type" : "VEC3"
        },
        {
            "bufferView" : 6,
            "componentType" : 5126,
            "count" : 144,
            "type" : "VEC2"
        },
        {
            "bufferView" : 7,
            "componentType" : 5123,
            "count" : 216,
            "type" : "SCALAR"
        },
        {
            "bufferView" : 8,
            "componentType" : 5126,
            "count" : 144,
            "max" : [
                0.2853626310825348,
                -0.037105742841959,
                -0.10344083607196808
            ],
            "min" : [
                0.2303323596715927,
                -0.08028224110603333,
                -0.16670997440814972
            ],
            "type" : "VEC3"
        },
        {
            "bufferView" : 9,
            "componentType" : 5126,
            "count" : 144,
            "type" : "VEC3"
        },
        {
            "bufferView" : 10,
            "componentType" : 5126,
            "count" : 144,
            "type" : "VEC2"
        },
        {
            "bufferView" : 11,
            "componentType" : 5123,
            "count" : 216,
            "type" : "SCALAR"
        },
        {
            "bufferView" : 12,
            "componentType" : 5126,
            "count" : 144,
            "max" : [
                0.2348930388689041,
                -0.046576496213674545,
                -0.08844327181577682
            ],
            "min" : [
                0.22404687106609344,
                -0.05262387916445732,
                -0.10032536834478378
            ],
            "type" : "VEC3"
        },
        {
            "bufferView" : 13,
            "componentType" : 5126,
            "count" : 144,
            "type" : "VEC3"
        },
        {
            "bufferView" : 14,
            "componentType" : 5126,
            "count" : 144,
            "type" : "VEC2"
        },
        {
            "bufferView" : 15,
            "componentType" : 5123,
            "count" : 216,
            "type" : "SCALAR"
        },
        {
            "bufferView" : 16,
            "componentType" : 5126,
            "count" : 144,
            "max" : [
                0.24780018627643585,
                -0.04566607251763344,
                -0.09197350591421127
            ],
            "min" : [
                0.23715125024318695,
                -0.05197754129767418,
                -0.10432740300893784
            ],
            "type" : "VEC3"
        },
        {
            "bufferView" : 17,
            "componentType" : 5126,
            "count" : 144,
            "type" : "VEC3"
        },
        {
            "bufferView" : 18,
            "componentType" : 5126,
            "count" : 144,
            "type" : "VEC2"
        },
        {
            "bufferView" : 19,
            "componentType" : 5123,
            "count" : 216,
            "type" : "SCALAR"
        },
        {
            "bufferView" : 20,
            "componentType" : 5126,
            "count" : 144,
            "max" : [
                0.5869572162628174,
                -0.12459395825862885,
                -0.12475278973579407
            ],
            "min" : [
                0.4993526041507721,
                -0.191510871052742,
                -0.2150978147983551
            ],
            "type" : "VEC3"
        },
        {
            "bufferView" : 21,
            "componentType" : 5126,
            "count" : 144,
            "type" : "VEC3"
        },
        {
            "bufferView" : 22,
            "componentType" : 5126,
            "count" : 144,
            "type" : "VEC2"
        },
        {
            "bufferView" : 23,
            "componentType" : 5123,
            "count" : 216,
            "type" : "SCALAR"
        },
        {
            "bufferView" : 24,
            "componentType" : 5126,
            "count" : 144,
            "max" : [
                0.48097196221351624,
                -0.1571781039237976,
                -0.06760015338659286
            ],
            "min" : [
                0.4186013638973236,
                -0.194132998585701,
                -0.12358006834983826
            ],
            "type" : "VEC3"
        },
        {
            "bufferView" : 25,
            "componentType" : 5126,
            "count" : 144,
            "type" : "VEC3"
        },
        {
            "bufferView" : 26,
            "componentType" : 5126,
            "count" : 144,
            "type" : "VEC2"
        },
        {
            "bufferView" : 27,
            "componentType" : 5123,
            "count" : 216,
            "type" : "SCALAR"
        },
        {
            "bufferView" : 28,
            "componentType" : 5126,
            "count" : 144,
            "max" : [
                0.49504610896110535,
                -0.13775302469730377,
                -0.1560591161251068
            ],
            "min" : [
                0.41446536779403687,
                -0.20750579237937927,
                -0.23759371042251587
            ],
            "type" : "VEC3"
        },
        {
            "bufferView" : 29,
            "componentType" : 5126,
            "count" : 144,
            "type" : "VEC3"
        },
        {
            "bufferView" : 30,
            "componentType" : 5126,
            "count" : 144,
            "type" : "VEC2"
        },
        {
            "bufferView" : 31,
            "componentType" : 5123,
            "count" : 216,
            "type" : "SCALAR"
        }
    ],
    "bufferViews" : [
        {
            "buffer" : 0,
            "byteLength" : 1728,
            "byteOffset" : 0
        },
        {
            "buffer" : 0,
            "byteLength" : 1728,
            "byteOffset" : 1728
        },
        {
            "buffer" : 0,
            "byteLength" : 1152,
            "byteOffset" : 3456
        },
        {
            "buffer" : 0,
            "byteLength" : 432,
            "byteOffset" : 4608
        },
        {
            "buffer" : 0,
            "byteLength" : 1728,
            "byteOffset" : 5040
        },
        {
            "buffer" : 0,
            "byteLength" : 1728,
            "byteOffset" : 6768
        },
        {
            "buffer" : 0,
            "byteLength" : 1152,
            "byteOffset" : 8496
        },
        {
            "buffer" : 0,
            "byteLength" : 432,
            "byteOffset" : 9648
        },
        {
            "buffer" : 0,
            "byteLength" : 1728,
            "byteOffset" : 10080
        },
        {
            "buffer" : 0,
            "byteLength" : 1728,
            "byteOffset" : 11808
        },
        {
            "buffer" : 0,
            "byteLength" : 1152,
            "byteOffset" : 13536
        },
        {
            "buffer" : 0,
            "byteLength" : 432,
            "byteOffset" : 14688
        },
        {
            "buffer" : 0,
            "byteLength" : 1728,
            "byteOffset" : 15120
        },
        {
            "buffer" : 0,
            "byteLength" : 1728,
            "byteOffset" : 16848
        },
        {
            "buffer" : 0,
            "byteLength" : 1152,
            "byteOffset" : 18576
        },
        {
            "buffer" : 0,
            "byteLength" : 432,
            "byteOffset" : 19728
        },
        {
            "buffer" : 0,
            "byteLength" : 1728,
            "byteOffset" : 20160
        },
        {
            "buffer" : 0,
            "byteLength" : 1728,
            "byteOffset" : 21888
        },
        {
            "buffer" : 0,
            "byteLength" : 1152,
            "byteOffset" : 23616
        },
        {
            "buffer" : 0,
            "byteLength" : 432,
            "byteOffset" : 24768
        },
        {
            "buffer" : 0,
            "byteLength" : 1728,
            "byteOffset" : 25200
        },
        {
            "buffer" : 0,
            "byteLength" : 1728,
            "byteOffset" : 26928
        },
        {
            "buffer" : 0,
            "byteLength" : 1152,
            "byteOffset" : 28656
        },
        {
            "buffer" : 0,
            "byteLength" : 432,
            "byteOffset" : 29808
        },
        {
            "buffer" : 0,
            "byteLength" : 1728,
            "byteOffset" : 30240
        },
        {
            "buffer" : 0,
            "byteLength" : 1728,
            "byteOffset" : 31968
        },
        {
            "buffer" : 0,
            "byteLength" : 1152,
            "byteOffset" : 33696
        },
        {
            "buffer" : 0,
            "byteLength" : 432,
            "byteOffset" : 34848
        },
        {
            "buffer" : 0,
            "byteLength" : 1728,
            "byteOffset" : 35280
        },
        {
            "buffer" : 0,
            "byteLength" : 1728,
            "byteOffset" : 37008
        },
        {
            "buffer" : 0,
            "byteLength" : 1152,
            "byteOffset" : 38736
        },
        {
            "buffer" : 0,
            "byteLength" : 432,
            "byteOffset" : 39888
        }
    ],
    "buffers" : [
        {
            "byteLength" : 40320,
            "uri" : "data:application/octet-stream;base64,"
        }
    ]
}
