{
    "asset" : {
        "generator" : "Khronos glTF Blender I/O v1.8.19",
        "version" : "2.0"
    },
    "scene" : 0,
    "scenes" : [
        {
            "name" : "Scene",
            "nodes" : [
                0
            ]
        }
    ],
    "nodes" : [
        {
            "mesh" : 0,
            "name" : "Plane.005"
        }
    ],
    "materials" : [
        {
            "doubleSided" : true,
            "name" : "Material.005",
            "pbrMetallicRoughness" : {
                "baseColorFactor" : [
                    0.7379106283187866,
                    0.4772130846977234,
                    0.20880497992038727,
                    1
                ],
                "metallicFactor" : 0,
                "roughnessFactor" : 0.5
            }
        },
        {
            "doubleSided" : true,
            "name" : "planeColor",
            "pbrMetallicRoughness" : {
                "baseColorFactor" : [
                    0.9624950885772705,
                    0.7071287035942078,
                    0.37027066946029663,
                    1
                ],
                "metallicFactor" : 0,
                "roughnessFactor" : 0.5
            }
        },
        {
            "doubleSided" : true,
            "name" : "Material.001",
            "pbrMetallicRoughness" : {
                "baseColorFactor" : [
                    0.7379106283187866,
                    0.4771682918071747,
                    0.35313642024993896,
                    1
                ],
                "metallicFactor" : 0,
                "roughnessFactor" : 0.5
            }
        },
        {
            "doubleSided" : true,
            "name" : "Material",
            "pbrMetallicRoughness" : {
                "baseColorFactor" : [
                    0.7379106283187866,
                    0.5311214327812195,
                    0.4628457725048065,
                    1
                ],
                "metallicFactor" : 0,
                "roughnessFactor" : 0.5
            }
        },
        {
            "doubleSided" : true,
            "name" : "Material.002",
            "pbrMetallicRoughness" : {
                "baseColorFactor" : [
                    0.7379106283187866,
                    0.5933939218521118,
                    0.3961547613143921,
                    1
                ],
                "metallicFactor" : 0,
                "roughnessFactor" : 0.5
            }
        },
        {
            "doubleSided" : true,
            "name" : "Material.004",
            "pbrMetallicRoughness" : {
                "baseColorFactor" : [
                    0.7379106283187866,
                    0.572245180606842,
                    0.41391173005104065,
                    1
                ],
                "metallicFactor" : 0,
                "roughnessFactor" : 0.5
            }
        },
        {
            "doubleSided" : true,
            "name" : "Material.003",
            "pbrMetallicRoughness" : {
                "baseColorFactor" : [
                    0.7379106283187866,
                    0.48715940117836,
                    0.39153826236724854,
                    1
                ],
                "metallicFactor" : 0,
                "roughnessFactor" : 0.5
            }
        }
    ],
    "meshes" : [
        {
            "name" : "Plane.005",
            "primitives" : [
                {
                    "attributes" : {
                        "POSITION" : 0,
                        "NORMAL" : 1,
                        "TEXCOORD_0" : 2
                    },
                    "indices" : 3,
                    "material" : 0
                },
                {
                    "attributes" : {
                        "POSITION" : 4,
                        "NORMAL" : 5,
                        "TEXCOORD_0" : 6
                    },
                    "indices" : 7,
                    "material" : 1
                },
                {
                    "attributes" : {
                        "POSITION" : 8,
                        "NORMAL" : 9,
                        "TEXCOORD_0" : 10
                    },
                    "indices" : 11,
                    "material" : 2
                },
                {
                    "attributes" : {
                        "POSITION" : 12,
                        "NORMAL" : 13,
                        "TEXCOORD_0" : 14
                    },
                    "indices" : 15,
                    "material" : 3
                },
                {
                    "attributes" : {
                        "POSITION" : 16,
                        "NORMAL" : 17,
                        "TEXCOORD_0" : 18
                    },
                    "indices" : 19,
                    "material" : 4
                },
                {
                    "attributes" : {
                        "POSITION" : 20,
                        "NORMAL" : 21,
                        "TEXCOORD_0" : 22
                    },
                    "indices" : 23,
                    "material" : 5
                },
                {
                    "attributes" : {
                        "POSITION" : 24,
                        "NORMAL" : 25,
                        "TEXCOORD_0" : 26
                    },
                    "indices" : 23,
                    "material" : 6
                }
            ]
        }
    ],
    "accessors" : [
        {
            "bufferView" : 0,
            "componentType" : 5126,
            "count" : 256,
            "max" : [
                -0.20826351642608643,
                0.14555624127388,
                0.38766252994537354
            ],
            "min" : [
                -0.5131006836891174,
                -0.07252532988786697,
                0.16625075042247772
            ],
            "type" : "VEC3"
        },
        {
            "bufferView" : 1,
            "componentType" : 5126,
            "count" : 256,
            "type" : "VEC3"
        },
        {
            "bufferView" : 2,
            "componentType" : 5126,
            "count" : 256,
            "type" : "VEC2"
        },
        {
            "bufferView" : 3,
            "componentType" : 5123,
            "count" : 384,
            "type" : "SCALAR"
        },
        {
            "bufferView" : 4,
            "componentType" : 5126,
            "count" : 3475,
            "max" : [
                2.420314311981201,
                4.616593837738037,
                1.2330204248428345
            ],
            "min" : [
                -1.1234171390533447,
                -0.549177348613739,
                -2.100324869155884
            ],
            "type" : "VEC3"
        },
        {
            "bufferView" : 5,
            "componentType" : 5126,
            "count" : 3475,
            "type" : "VEC3"
        },
        {
            "bufferView" : 6,
            "componentType" : 5126,
            "count" : 3475,
            "type" : "VEC2"
        },
        {
            "bufferView" : 7,
            "componentType" : 5123,
            "count" : 5214,
            "type" : "SCALAR"
        },
        {
            "bufferView" : 8,
            "componentType" : 5126,
            "count" : 256,
            "max" : [
                1.3650118112564087,
                0.7070122957229614,
                -0.2421349585056305
            ],
            "min" : [
                -0.7642642259597778,
                -0.922038197517395,
                -1.7523969411849976
            ],
            "type" : "VEC3"
        },
        {
            "bufferView" : 9,
            "componentType" : 5126,
            "count" : 256,
            "type" : "VEC3"
        },
        {
            "bufferView" : 10,
            "componentType" : 5126,
            "count" : 256,
            "type" : "VEC2"
        },
        {
            "bufferView" : 11,
            "componentType" : 5123,
            "count" : 384,
            "type" : "SCALAR"
        },
        {
            "bufferView" : 12,
            "componentType" : 5126,
            "count" : 256,
            "max" : [
                2.1363155841827393,
                -0.16224168241024017,
                -0.2912558615207672
            ],
            "min" : [
                0.7188632488250732,
                -0.776951789855957,
                -1.3859199285507202
            ],
            "type" : "VEC3"
        },
        {
            "bufferView" : 13,
            "componentType" : 5126,
            "count" : 256,
            "type" : "VEC3"
        },
        {
            "bufferView" : 14,
            "componentType" : 5126,
            "count" : 256,
            "type" : "VEC2"
        },
        {
            "bufferView" : 15,
            "componentType" : 5123,
            "count" : 384,
            "type" : "SCALAR"
        },
        {
            "bufferView" : 16,
            "componentType" : 5126,
            "count" : 256,
            "max" : [
                1.5287410020828247,
                -0.20481187105178833,
                0.1835765391588211
            ],
            "min" : [
                1.1767464876174927,
                -0.4172457456588745,
                -0.2656773328781128
            ],
            "type" : "VEC3"
        },
        {
            "bufferView" : 17,
            "componentType" : 5126,
            "count" : 256,
            "type" : "VEC3"
        },
        {
            "bufferView" : 18,
            "componentType" : 5126,
            "count" : 256,
            "type" : "VEC2"
        },
        {
            "bufferView" : 19,
            "componentType" : 5123,
            "count" : 384,
            "type" : "SCALAR"
        },
        {
            "bufferView" : 20,
            "componentType" : 5126,
            "count" : 256,
            "max" : [
                0.6949325203895569,
                -0.021742189303040504,
                0.4910760223865509
            ],
            "min" : [
                0.4236840009689331,
                -0.14713919162750244,
                0.2526759207248688
            ],
            "type" : "VEC3"
        },
        {
            "bufferView" : 21,
            "componentType" : 5126,
            "count" : 256,
            "type" : "VEC3"
        },
        {
            "bufferView" : 22,
            "componentType" : 5126,
            "count" : 256,
            "type" : "VEC2"
        },
        {
            "bufferView" : 23,
            "componentType" : 5123,
            "count" : 384,
            "type" : "SCALAR"
        },
        {
            "bufferView" : 24,
            "componentType" : 5126,
            "count" : 256,
            "max" : [
                0.7941136360168457,
                -0.08037178218364716,
                0.003495465498417616
            ],
            "min" : [
                0.5228652358055115,
                -0.20576879382133484,
                -0.23490463197231293
            ],
            "type" : "VEC3"
        },
        {
            "bufferView" : 25,
            "componentType" : 5126,
            "count" : 256,
            "type" : "VEC3"
        },
        {
            "bufferView" : 26,
            "componentType" : 5126,
            "count" : 256,
            "type" : "VEC2"
        }
    ],
    "bufferViews" : [
        {
            "buffer" : 0,
            "byteLength" : 3072,
            "byteOffset" : 0
        },
        {
            "buffer" : 0,
            "byteLength" : 3072,
            "byteOffset" : 3072
        },
        {
            "buffer" : 0,
            "byteLength" : 2048,
            "byteOffset" : 6144
        },
        {
            "buffer" : 0,
            "byteLength" : 768,
            "byteOffset" : 8192
        },
        {
            "buffer" : 0,
            "byteLength" : 41700,
            "byteOffset" : 8960
        },
        {
            "buffer" : 0,
            "byteLength" : 41700,
            "byteOffset" : 50660
        },
        {
            "buffer" : 0,
            "byteLength" : 27800,
            "byteOffset" : 92360
        },
        {
            "buffer" : 0,
            "byteLength" : 10428,
            "byteOffset" : 120160
        },
        {
            "buffer" : 0,
            "byteLength" : 3072,
            "byteOffset" : 130588
        },
        {
            "buffer" : 0,
            "byteLength" : 3072,
            "byteOffset" : 133660
        },
        {
            "buffer" : 0,
            "byteLength" : 2048,
            "byteOffset" : 136732
        },
        {
            "buffer" : 0,
            "byteLength" : 768,
            "byteOffset" : 138780
        },
        {
            "buffer" : 0,
            "byteLength" : 3072,
            "byteOffset" : 139548
        },
        {
            "buffer" : 0,
            "byteLength" : 3072,
            "byteOffset" : 142620
        },
        {
            "buffer" : 0,
            "byteLength" : 2048,
            "byteOffset" : 145692
        },
        {
            "buffer" : 0,
            "byteLength" : 768,
            "byteOffset" : 147740
        },
        {
            "buffer" : 0,
            "byteLength" : 3072,
            "byteOffset" : 148508
        },
        {
            "buffer" : 0,
            "byteLength" : 3072,
            "byteOffset" : 151580
        },
        {
            "buffer" : 0,
            "byteLength" : 2048,
            "byteOffset" : 154652
        },
        {
            "buffer" : 0,
            "byteLength" : 768,
            "byteOffset" : 156700
        },
        {
            "buffer" : 0,
            "byteLength" : 3072,
            "byteOffset" : 157468
        },
        {
            "buffer" : 0,
            "byteLength" : 3072,
            "byteOffset" : 160540
        },
        {
            "buffer" : 0,
            "byteLength" : 2048,
            "byteOffset" : 163612
        },
        {
            "buffer" : 0,
            "byteLength" : 768,
            "byteOffset" : 165660
        },
        {
            "buffer" : 0,
            "byteLength" : 3072,
            "byteOffset" : 166428
        },
        {
            "buffer" : 0,
            "byteLength" : 3072,
            "byteOffset" : 169500
        },
        {
            "buffer" : 0,
            "byteLength" : 2048,
            "byteOffset" : 172572
        }
    ],
    "buffers" : [
        {
            "byteLength" : 174620,
            "uri" : "data:application/octet-stream;base64,"
        }
    ]
}
