{
    "asset" : {
        "generator" : "Khronos glTF Blender I/O v1.8.19",
        "version" : "2.0"
    },
    "scene" : 0,
    "scenes" : [
        {
            "name" : "Scene",
            "nodes" : [
                0
            ]
        }
    ],
    "nodes" : [
        {
            "mesh" : 0,
            "name" : "Plane.005"
        }
    ],
    "materials" : [
        {
            "doubleSided" : true,
            "name" : "Material.005",
            "pbrMetallicRoughness" : {
                "baseColorFactor" : [
                    0.8796218633651733,
                    0.6514053344726562,
                    0.41254276037216187,
                    1
                ],
                "metallicFactor" : 0,
                "roughnessFactor" : 0.5
            }
        },
        {
            "doubleSided" : true,
            "name" : "planeColor",
            "pbrMetallicRoughness" : {
                "baseColorFactor" : [
                    0.8796218633651733,
                    0.6514053344726562,
                    0.41254276037216187,
                    1
                ],
                "metallicFactor" : 0,
                "roughnessFactor" : 0.5
            }
        },
        {
            "doubleSided" : true,
            "name" : "planeColor.001",
            "pbrMetallicRoughness" : {
                "baseColorFactor" : [
                    0.8796219825744629,
                    0.7383090257644653,
                    0.3756258487701416,
                    1
                ],
                "metallicFactor" : 0,
                "roughnessFactor" : 0.5
            }
        },
        {
            "doubleSided" : true,
            "name" : "Material",
            "pbrMetallicRoughness" : {
                "baseColorFactor" : [
                    0.8796219229698181,
                    0.5775800347328186,
                    0.41254276037216187,
                    1
                ],
                "metallicFactor" : 0,
                "roughnessFactor" : 0.5
            }
        },
        {
            "doubleSided" : true,
            "name" : "Material.003",
            "pbrMetallicRoughness" : {
                "baseColorFactor" : [
                    0.8796218633651733,
                    0.6514053344726562,
                    0.41254276037216187,
                    1
                ],
                "metallicFactor" : 0,
                "roughnessFactor" : 0.5
            }
        },
        {
            "doubleSided" : true,
            "name" : "Material.004",
            "pbrMetallicRoughness" : {
                "baseColorFactor" : [
                    0.8796218633651733,
                    0.6545023918151855,
                    0.36104124784469604,
                    1
                ],
                "metallicFactor" : 0,
                "roughnessFactor" : 0.5
            }
        },
        {
            "doubleSided" : true,
            "name" : "Material.001",
            "pbrMetallicRoughness" : {
                "baseColorFactor" : [
                    0.8796218633651733,
                    0.5349116921424866,
                    0.40931475162506104,
                    1
                ],
                "metallicFactor" : 0,
                "roughnessFactor" : 0.5
            }
        },
        {
            "doubleSided" : true,
            "name" : "Material.002",
            "pbrMetallicRoughness" : {
                "baseColorFactor" : [
                    0.8796218633651733,
                    0.6514053344726562,
                    0.41254276037216187,
                    1
                ],
                "metallicFactor" : 0,
                "roughnessFactor" : 0.5
            }
        }
    ],
    "meshes" : [
        {
            "name" : "Plane.005",
            "primitives" : [
                {
                    "attributes" : {
                        "POSITION" : 0,
                        "NORMAL" : 1,
                        "TEXCOORD_0" : 2
                    },
                    "indices" : 3,
                    "material" : 0
                },
                {
                    "attributes" : {
                        "POSITION" : 4,
                        "NORMAL" : 5,
                        "TEXCOORD_0" : 6
                    },
                    "indices" : 7,
                    "material" : 1
                },
                {
                    "attributes" : {
                        "POSITION" : 8,
                        "NORMAL" : 9,
                        "TEXCOORD_0" : 10
                    },
                    "indices" : 11,
                    "material" : 2
                },
                {
                    "attributes" : {
                        "POSITION" : 12,
                        "NORMAL" : 13,
                        "TEXCOORD_0" : 14
                    },
                    "indices" : 15,
                    "material" : 3
                },
                {
                    "attributes" : {
                        "POSITION" : 16,
                        "NORMAL" : 17,
                        "TEXCOORD_0" : 18
                    },
                    "indices" : 19,
                    "material" : 4
                },
                {
                    "attributes" : {
                        "POSITION" : 20,
                        "NORMAL" : 21,
                        "TEXCOORD_0" : 22
                    },
                    "indices" : 23,
                    "material" : 5
                },
                {
                    "attributes" : {
                        "POSITION" : 24,
                        "NORMAL" : 25,
                        "TEXCOORD_0" : 26
                    },
                    "indices" : 3,
                    "material" : 6
                },
                {
                    "attributes" : {
                        "POSITION" : 27,
                        "NORMAL" : 28,
                        "TEXCOORD_0" : 29
                    },
                    "indices" : 3,
                    "material" : 7
                }
            ]
        }
    ],
    "accessors" : [
        {
            "bufferView" : 0,
            "componentType" : 5126,
            "count" : 100,
            "max" : [
                -2.4079127311706543,
                -0.36388498544692993,
                1.6901276111602783
            ],
            "min" : [
                -3.1113603115081787,
                -0.7578564882278442,
                0.9353148341178894
            ],
            "type" : "VEC3"
        },
        {
            "bufferView" : 1,
            "componentType" : 5126,
            "count" : 100,
            "type" : "VEC3"
        },
        {
            "bufferView" : 2,
            "componentType" : 5126,
            "count" : 100,
            "type" : "VEC2"
        },
        {
            "bufferView" : 3,
            "componentType" : 5123,
            "count" : 150,
            "type" : "SCALAR"
        },
        {
            "bufferView" : 4,
            "componentType" : 5126,
            "count" : 7172,
            "max" : [
                5.911960601806641,
                7.208765506744385,
                3.993302345275879
            ],
            "min" : [
                -5.453256607055664,
                -1.6763721704483032,
                -5.753572463989258
            ],
            "type" : "VEC3"
        },
        {
            "bufferView" : 5,
            "componentType" : 5126,
            "count" : 7172,
            "type" : "VEC3"
        },
        {
            "bufferView" : 6,
            "componentType" : 5126,
            "count" : 7172,
            "type" : "VEC2"
        },
        {
            "bufferView" : 7,
            "componentType" : 5123,
            "count" : 10758,
            "type" : "SCALAR"
        },
        {
            "bufferView" : 8,
            "componentType" : 5126,
            "count" : 1040,
            "max" : [
                6.022216320037842,
                2.8617236614227295,
                1.1246684789657593
            ],
            "min" : [
                2.7487599849700928,
                -1.3898975849151611,
                -1.883887767791748
            ],
            "type" : "VEC3"
        },
        {
            "bufferView" : 9,
            "componentType" : 5126,
            "count" : 1040,
            "type" : "VEC3"
        },
        {
            "bufferView" : 10,
            "componentType" : 5126,
            "count" : 1040,
            "type" : "VEC2"
        },
        {
            "bufferView" : 11,
            "componentType" : 5123,
            "count" : 1560,
            "type" : "SCALAR"
        },
        {
            "bufferView" : 12,
            "componentType" : 5126,
            "count" : 100,
            "max" : [
                1.4783320426940918,
                2.604593276977539,
                -0.16018107533454895
            ],
            "min" : [
                -3.4090065956115723,
                -0.7554646730422974,
                -4.863370418548584
            ],
            "type" : "VEC3"
        },
        {
            "bufferView" : 13,
            "componentType" : 5126,
            "count" : 100,
            "type" : "VEC3"
        },
        {
            "bufferView" : 14,
            "componentType" : 5126,
            "count" : 100,
            "type" : "VEC2"
        },
        {
            "bufferView" : 15,
            "componentType" : 5123,
            "count" : 150,
            "type" : "SCALAR"
        },
        {
            "bufferView" : 16,
            "componentType" : 5126,
            "count" : 100,
            "max" : [
                1.4466428756713867,
                0.7017717361450195,
                1.359656810760498
            ],
            "min" : [
                -2.1869940757751465,
                -1.1891913414001465,
                -1.2146234512329102
            ],
            "type" : "VEC3"
        },
        {
            "bufferView" : 17,
            "componentType" : 5126,
            "count" : 100,
            "type" : "VEC3"
        },
        {
            "bufferView" : 18,
            "componentType" : 5126,
            "count" : 100,
            "type" : "VEC2"
        },
        {
            "bufferView" : 19,
            "componentType" : 5123,
            "count" : 150,
            "type" : "SCALAR"
        },
        {
            "bufferView" : 20,
            "componentType" : 5126,
            "count" : 100,
            "max" : [
                -0.006699547171592712,
                -0.35776054859161377,
                2.7621567249298096
            ],
            "min" : [
                -1.4141490459442139,
                -1.2357741594314575,
                1.4297863245010376
            ],
            "type" : "VEC3"
        },
        {
            "bufferView" : 21,
            "componentType" : 5126,
            "count" : 100,
            "type" : "VEC3"
        },
        {
            "bufferView" : 22,
            "componentType" : 5126,
            "count" : 100,
            "type" : "VEC2"
        },
        {
            "bufferView" : 23,
            "componentType" : 5123,
            "count" : 150,
            "type" : "SCALAR"
        },
        {
            "bufferView" : 24,
            "componentType" : 5126,
            "count" : 100,
            "max" : [
                -2.271239995956421,
                0.4113869071006775,
                0.583999514579773
            ],
            "min" : [
                -3.678689956665039,
                -0.3768664002418518,
                -0.9262199401855469
            ],
            "type" : "VEC3"
        },
        {
            "bufferView" : 25,
            "componentType" : 5126,
            "count" : 100,
            "type" : "VEC3"
        },
        {
            "bufferView" : 26,
            "componentType" : 5126,
            "count" : 100,
            "type" : "VEC2"
        },
        {
            "bufferView" : 27,
            "componentType" : 5126,
            "count" : 100,
            "max" : [
                -2.545043468475342,
                -0.12194208800792694,
                1.1590576171875
            ],
            "min" : [
                -3.248491048812866,
                -0.5159135460853577,
                0.40424486994743347
            ],
            "type" : "VEC3"
        },
        {
            "bufferView" : 28,
            "componentType" : 5126,
            "count" : 100,
            "type" : "VEC3"
        },
        {
            "bufferView" : 29,
            "componentType" : 5126,
            "count" : 100,
            "type" : "VEC2"
        }
    ],
    "bufferViews" : [
        {
            "buffer" : 0,
            "byteLength" : 1200,
            "byteOffset" : 0
        },
        {
            "buffer" : 0,
            "byteLength" : 1200,
            "byteOffset" : 1200
        },
        {
            "buffer" : 0,
            "byteLength" : 800,
            "byteOffset" : 2400
        },
        {
            "buffer" : 0,
            "byteLength" : 300,
            "byteOffset" : 3200
        },
        {
            "buffer" : 0,
            "byteLength" : 86064,
            "byteOffset" : 3500
        },
        {
            "buffer" : 0,
            "byteLength" : 86064,
            "byteOffset" : 89564
        },
        {
            "buffer" : 0,
            "byteLength" : 57376,
            "byteOffset" : 175628
        },
        {
            "buffer" : 0,
            "byteLength" : 21516,
            "byteOffset" : 233004
        },
        {
            "buffer" : 0,
            "byteLength" : 12480,
            "byteOffset" : 254520
        },
        {
            "buffer" : 0,
            "byteLength" : 12480,
            "byteOffset" : 267000
        },
        {
            "buffer" : 0,
            "byteLength" : 8320,
            "byteOffset" : 279480
        },
        {
            "buffer" : 0,
            "byteLength" : 3120,
            "byteOffset" : 287800
        },
        {
            "buffer" : 0,
            "byteLength" : 1200,
            "byteOffset" : 290920
        },
        {
            "buffer" : 0,
            "byteLength" : 1200,
            "byteOffset" : 292120
        },
        {
            "buffer" : 0,
            "byteLength" : 800,
            "byteOffset" : 293320
        },
        {
            "buffer" : 0,
            "byteLength" : 300,
            "byteOffset" : 294120
        },
        {
            "buffer" : 0,
            "byteLength" : 1200,
            "byteOffset" : 294420
        },
        {
            "buffer" : 0,
            "byteLength" : 1200,
            "byteOffset" : 295620
        },
        {
            "buffer" : 0,
            "byteLength" : 800,
            "byteOffset" : 296820
        },
        {
            "buffer" : 0,
            "byteLength" : 300,
            "byteOffset" : 297620
        },
        {
            "buffer" : 0,
            "byteLength" : 1200,
            "byteOffset" : 297920
        },
        {
            "buffer" : 0,
            "byteLength" : 1200,
            "byteOffset" : 299120
        },
        {
            "buffer" : 0,
            "byteLength" : 800,
            "byteOffset" : 300320
        },
        {
            "buffer" : 0,
            "byteLength" : 300,
            "byteOffset" : 301120
        },
        {
            "buffer" : 0,
            "byteLength" : 1200,
            "byteOffset" : 301420
        },
        {
            "buffer" : 0,
            "byteLength" : 1200,
            "byteOffset" : 302620
        },
        {
            "buffer" : 0,
            "byteLength" : 800,
            "byteOffset" : 303820
        },
        {
            "buffer" : 0,
            "byteLength" : 1200,
            "byteOffset" : 304620
        },
        {
            "buffer" : 0,
            "byteLength" : 1200,
            "byteOffset" : 305820
        },
        {
            "buffer" : 0,
            "byteLength" : 800,
            "byteOffset" : 307020
        }
    ],
    "buffers" : [
        {
            "byteLength" : 307820,
            "uri" : "data:application/octet-stream;base64,"
        }
    ]
}
