{
    "asset" : {
        "generator" : "Khronos glTF Blender I/O v1.8.19",
        "version" : "2.0"
    },
    "scene" : 0,
    "scenes" : [
        {
            "name" : "Scene",
            "nodes" : [
                0
            ]
        }
    ],
    "nodes" : [
        {
            "mesh" : 0,
            "name" : "Plane.001",
            "translation" : [
                -0.0004618661478161812,
                -0.0044098347425460815,
                -3.8777794543420896e-05
            ]
        }
    ],
    "materials" : [
        {
            "doubleSided" : true,
            "name" : "Material",
            "pbrMetallicRoughness" : {
                "baseColorFactor" : [
                    0.8619223237037659,
                    0.8466772437095642,
                    0.1874603033065796,
                    1
                ],
                "metallicFactor" : 0,
                "roughnessFactor" : 0.5
            }
        },
        {
            "doubleSided" : true,
            "name" : "planeColor",
            "pbrMetallicRoughness" : {
                "baseColorFactor" : [
                    1,
                    0.603827178478241,
                    0.26225075125694275,
                    1
                ],
                "metallicFactor" : 0,
                "roughnessFactor" : 0.5
            }
        }
    ],
    "meshes" : [
        {
            "name" : "Plane.001",
            "primitives" : [
                {
                    "attributes" : {
                        "POSITION" : 0,
                        "NORMAL" : 1,
                        "TEXCOORD_0" : 2
                    },
                    "indices" : 3,
                    "material" : 0
                },
                {
                    "attributes" : {
                        "POSITION" : 4,
                        "NORMAL" : 5,
                        "TEXCOORD_0" : 6
                    },
                    "indices" : 7,
                    "material" : 1
                }
            ]
        }
    ],
    "accessors" : [
        {
            "bufferView" : 0,
            "componentType" : 5126,
            "count" : 2429,
            "max" : [
                1.6392159461975098,
                0.12427833676338196,
                1.4643067121505737
            ],
            "min" : [
                -1.4541468620300293,
                -0.08956319838762283,
                -1.3903335332870483
            ],
            "type" : "VEC3"
        },
        {
            "bufferView" : 1,
            "componentType" : 5126,
            "count" : 2429,
            "type" : "VEC3"
        },
        {
            "bufferView" : 2,
            "componentType" : 5126,
            "count" : 2429,
            "type" : "VEC2"
        },
        {
            "bufferView" : 3,
            "componentType" : 5123,
            "count" : 3654,
            "type" : "SCALAR"
        },
        {
            "bufferView" : 4,
            "componentType" : 5126,
            "count" : 1040,
            "max" : [
                1.6511567831039429,
                1.8194299936294556,
                1.48723566532135
            ],
            "min" : [
                -1.4787311553955078,
                -0.09023845940828323,
                -1.4309769868850708
            ],
            "type" : "VEC3"
        },
        {
            "bufferView" : 5,
            "componentType" : 5126,
            "count" : 1040,
            "type" : "VEC3"
        },
        {
            "bufferView" : 6,
            "componentType" : 5126,
            "count" : 1040,
            "type" : "VEC2"
        },
        {
            "bufferView" : 7,
            "componentType" : 5123,
            "count" : 1560,
            "type" : "SCALAR"
        }
    ],
    "bufferViews" : [
        {
            "buffer" : 0,
            "byteLength" : 29148,
            "byteOffset" : 0
        },
        {
            "buffer" : 0,
            "byteLength" : 29148,
            "byteOffset" : 29148
        },
        {
            "buffer" : 0,
            "byteLength" : 19432,
            "byteOffset" : 58296
        },
        {
            "buffer" : 0,
            "byteLength" : 7308,
            "byteOffset" : 77728
        },
        {
            "buffer" : 0,
            "byteLength" : 12480,
            "byteOffset" : 85036
        },
        {
            "buffer" : 0,
            "byteLength" : 12480,
            "byteOffset" : 97516
        },
        {
            "buffer" : 0,
            "byteLength" : 8320,
            "byteOffset" : 109996
        },
        {
            "buffer" : 0,
            "byteLength" : 3120,
            "byteOffset" : 118316
        }
    ],
    "buffers" : [
        {
            "byteLength" : 121436,
            "uri" : "data:application/octet-stream;base64,"
        }
    ]
}
