{
    "asset" : {
        "generator" : "Khronos glTF Blender I/O v1.7.33",
        "version" : "2.0"
    },
    "scene" : 0,
    "scenes" : [
        {
            "name" : "Scene",
            "nodes" : [
                0
            ]
        }
    ],
    "nodes" : [
        {
            "mesh" : 0,
            "name" : "Plane.002",
            "rotation" : [
                0.9673298001289368,
                -0.15442432463169098,
                -0.13356523215770721,
                0.15028813481330872
            ],
            "scale" : [
                0.15785734355449677,
                0.15785729885101318,
                0.1578572690486908
            ],
            "translation" : [
                -0.07482990622520447,
                -0.03860753774642944,
                0.6303349137306213
            ]
        }
    ],
    "materials" : [
        {
            "doubleSided" : true,
            "name" : "planeColor",
            "pbrMetallicRoughness" : {
                "baseColorFactor" : [
                    0.8829293847084045,
                    0.6504773497581482,
                    0.41131383180618286,
                    1
                ],
                "metallicFactor" : 0,
                "roughnessFactor" : 0.5
            }
        },
        {
            "doubleSided" : true,
            "name" : "planeColor.001",
            "pbrMetallicRoughness" : {
                "baseColorFactor" : [
                    0.8000000715255737,
                    0.7848642468452454,
                    0.41773736476898193,
                    1
                ],
                "metallicFactor" : 0,
                "roughnessFactor" : 0.5
            }
        }
    ],
    "meshes" : [
        {
            "name" : "Plane.002",
            "primitives" : [
                {
                    "attributes" : {
                        "POSITION" : 0,
                        "NORMAL" : 1,
                        "TEXCOORD_0" : 2
                    },
                    "indices" : 3,
                    "material" : 0
                },
                {
                    "attributes" : {
                        "POSITION" : 4,
                        "NORMAL" : 5,
                        "TEXCOORD_0" : 6
                    },
                    "indices" : 7,
                    "material" : 1
                }
            ]
        }
    ],
    "accessors" : [
        {
            "bufferView" : 0,
            "componentType" : 5126,
            "count" : 7162,
            "max" : [
                7.425682067871094,
                1.2602087259292603,
                8.216361999511719
            ],
            "min" : [
                -2.728604316711426,
                -8.665313720703125,
                -1.5859324932098389
            ],
            "type" : "VEC3"
        },
        {
            "bufferView" : 1,
            "componentType" : 5126,
            "count" : 7162,
            "type" : "VEC3"
        },
        {
            "bufferView" : 2,
            "componentType" : 5126,
            "count" : 7162,
            "type" : "VEC2"
        },
        {
            "bufferView" : 3,
            "componentType" : 5123,
            "count" : 10758,
            "type" : "SCALAR"
        },
        {
            "bufferView" : 4,
            "componentType" : 5126,
            "count" : 1040,
            "max" : [
                1.530908465385437,
                1.3337026834487915,
                1.118416428565979
            ],
            "min" : [
                -1.631080985069275,
                -3.2256674766540527,
                -1.9830113649368286
            ],
            "type" : "VEC3"
        },
        {
            "bufferView" : 5,
            "componentType" : 5126,
            "count" : 1040,
            "type" : "VEC3"
        },
        {
            "bufferView" : 6,
            "componentType" : 5126,
            "count" : 1040,
            "type" : "VEC2"
        },
        {
            "bufferView" : 7,
            "componentType" : 5123,
            "count" : 1560,
            "type" : "SCALAR"
        }
    ],
    "bufferViews" : [
        {
            "buffer" : 0,
            "byteLength" : 85944,
            "byteOffset" : 0
        },
        {
            "buffer" : 0,
            "byteLength" : 85944,
            "byteOffset" : 85944
        },
        {
            "buffer" : 0,
            "byteLength" : 57296,
            "byteOffset" : 171888
        },
        {
            "buffer" : 0,
            "byteLength" : 21516,
            "byteOffset" : 229184
        },
        {
            "buffer" : 0,
            "byteLength" : 12480,
            "byteOffset" : 250700
        },
        {
            "buffer" : 0,
            "byteLength" : 12480,
            "byteOffset" : 263180
        },
        {
            "buffer" : 0,
            "byteLength" : 8320,
            "byteOffset" : 275660
        },
        {
            "buffer" : 0,
            "byteLength" : 3120,
            "byteOffset" : 283980
        }
    ],
    "buffers" : [
        {
            "byteLength" : 287100,
            "uri" : "data:application/octet-stream;base64,"
        }
    ]
}
