{
    "asset" : {
        "generator" : "Khronos glTF Blender I/O v1.7.33",
        "version" : "2.0"
    },
    "scene" : 0,
    "scenes" : [
        {
            "name" : "Scene",
            "nodes" : [
                0
            ]
        }
    ],
    "nodes" : [
        {
            "mesh" : 0,
            "name" : "Cone",
            "scale" : [
                0.9122060537338257,
                0.679177463054657,
                0.001887794234789908
            ]
        }
    ],
    "materials" : [
        {
            "doubleSided" : true,
            "name" : "triangleFront",
            "pbrMetallicRoughness" : {
                "baseColorFactor" : [
                    1,
                    0.9386857748031616,
                    0.7083760499954224,
                    1
                ],
                "metallicFactor" : 0,
                "roughnessFactor" : 0.5
            }
        },
        {
            "doubleSided" : true,
            "name" : "walls",
            "pbrMetallicRoughness" : {
                "baseColorFactor" : [
                    1,
                    0.9061872363090515,
                    0.6564545035362244,
                    1
                ],
                "metallicFactor" : 0,
                "roughnessFactor" : 0.4000000059604645
            }
        },
        {
            "doubleSided" : true,
            "name" : "rightRouf",
            "pbrMetallicRoughness" : {
                "baseColorFactor" : [
                    1,
                    0.7991030812263489,
                    0.6724433898925781,
                    1
                ],
                "metallicFactor" : 0,
                "roughnessFactor" : 0.5
            }
        },
        {
            "doubleSided" : true,
            "name" : "leftRouf",
            "pbrMetallicRoughness" : {
                "baseColorFactor" : [
                    1,
                    0.7991030812263489,
                    0.6724433898925781,
                    1
                ],
                "metallicFactor" : 0,
                "roughnessFactor" : 0.5
            }
        },
        {
            "doubleSided" : true,
            "name" : "rouf",
            "pbrMetallicRoughness" : {
                "baseColorFactor" : [
                    0.7874050140380859,
                    0.671953558921814,
                    0.5280191898345947,
                    1
                ],
                "metallicFactor" : 0,
                "roughnessFactor" : 0.5
            }
        },
        {
            "doubleSided" : true,
            "name" : "triangle.002",
            "pbrMetallicRoughness" : {
                "baseColorFactor" : [
                    1,
                    0.9386857748031616,
                    0.7083760499954224,
                    1
                ],
                "metallicFactor" : 0,
                "roughnessFactor" : 0.5
            }
        },
        {
            "doubleSided" : true,
            "name" : "Material.006",
            "pbrMetallicRoughness" : {
                "baseColorFactor" : [
                    0.9215817451477051,
                    0.8549929261207581,
                    0.6724433898925781,
                    1
                ],
                "metallicFactor" : 0,
                "roughnessFactor" : 0.5
            }
        },
        {
            "doubleSided" : true,
            "name" : "house.001",
            "pbrMetallicRoughness" : {
                "baseColorFactor" : [
                    0.7874050140380859,
                    0.6871121525764465,
                    0.47937294840812683,
                    1
                ],
                "metallicFactor" : 0,
                "roughnessFactor" : 0.5
            }
        },
        {
            "doubleSided" : true,
            "name" : "Material.007",
            "pbrMetallicRoughness" : {
                "baseColorFactor" : [
                    0.9215817451477051,
                    0.8549929261207581,
                    0.6724433898925781,
                    1
                ],
                "metallicFactor" : 0,
                "roughnessFactor" : 0.5
            }
        },
        {
            "doubleSided" : true,
            "name" : "Material.005",
            "pbrMetallicRoughness" : {
                "baseColorFactor" : [
                    0.9215817451477051,
                    0.8549929261207581,
                    0.6724433898925781,
                    1
                ],
                "metallicFactor" : 0,
                "roughnessFactor" : 0.5
            }
        }
    ],
    "meshes" : [
        {
            "name" : "Cone",
            "primitives" : [
                {
                    "attributes" : {
                        "POSITION" : 0,
                        "NORMAL" : 1,
                        "TEXCOORD_0" : 2
                    },
                    "indices" : 3,
                    "material" : 0
                },
                {
                    "attributes" : {
                        "POSITION" : 4,
                        "NORMAL" : 5,
                        "TEXCOORD_0" : 6
                    },
                    "indices" : 7,
                    "material" : 1
                },
                {
                    "attributes" : {
                        "POSITION" : 8,
                        "NORMAL" : 9,
                        "TEXCOORD_0" : 10
                    },
                    "indices" : 11,
                    "material" : 2
                },
                {
                    "attributes" : {
                        "POSITION" : 12,
                        "NORMAL" : 13,
                        "TEXCOORD_0" : 14
                    },
                    "indices" : 15,
                    "material" : 3
                },
                {
                    "attributes" : {
                        "POSITION" : 16,
                        "NORMAL" : 17,
                        "TEXCOORD_0" : 18
                    },
                    "indices" : 19,
                    "material" : 4
                },
                {
                    "attributes" : {
                        "POSITION" : 20,
                        "NORMAL" : 21,
                        "TEXCOORD_0" : 22
                    },
                    "indices" : 23,
                    "material" : 5
                },
                {
                    "attributes" : {
                        "POSITION" : 24,
                        "NORMAL" : 25,
                        "TEXCOORD_0" : 26
                    },
                    "indices" : 15,
                    "material" : 6
                },
                {
                    "attributes" : {
                        "POSITION" : 27,
                        "NORMAL" : 28,
                        "TEXCOORD_0" : 29
                    },
                    "indices" : 15,
                    "material" : 7
                },
                {
                    "attributes" : {
                        "POSITION" : 30,
                        "NORMAL" : 31,
                        "TEXCOORD_0" : 32
                    },
                    "indices" : 33,
                    "material" : 8
                },
                {
                    "attributes" : {
                        "POSITION" : 34,
                        "NORMAL" : 35,
                        "TEXCOORD_0" : 36
                    },
                    "indices" : 15,
                    "material" : 9
                }
            ]
        }
    ],
    "accessors" : [
        {
            "bufferView" : 0,
            "componentType" : 5126,
            "count" : 128,
            "max" : [
                1,
                1,
                1
            ],
            "min" : [
                -1,
                -1,
                -1
            ],
            "type" : "VEC3"
        },
        {
            "bufferView" : 1,
            "componentType" : 5126,
            "count" : 128,
            "type" : "VEC3"
        },
        {
            "bufferView" : 2,
            "componentType" : 5126,
            "count" : 128,
            "type" : "VEC2"
        },
        {
            "bufferView" : 3,
            "componentType" : 5123,
            "count" : 186,
            "type" : "SCALAR"
        },
        {
            "bufferView" : 4,
            "componentType" : 5126,
            "count" : 24,
            "max" : [
                0.9634389281272888,
                -1.0058778524398804,
                39.9910888671875
            ],
            "min" : [
                -1.0788859128952026,
                -1.7509158849716187,
                -606.1939697265625
            ],
            "type" : "VEC3"
        },
        {
            "bufferView" : 5,
            "componentType" : 5126,
            "count" : 24,
            "type" : "VEC3"
        },
        {
            "bufferView" : 6,
            "componentType" : 5126,
            "count" : 24,
            "type" : "VEC2"
        },
        {
            "bufferView" : 7,
            "componentType" : 5123,
            "count" : 36,
            "type" : "SCALAR"
        },
        {
            "bufferView" : 8,
            "componentType" : 5126,
            "count" : 24,
            "max" : [
                1.0930095911026,
                1.028692603111267,
                40.029449462890625
            ],
            "min" : [
                -0.00894153118133545,
                -1.061404824256897,
                -603.7364501953125
            ],
            "type" : "VEC3"
        },
        {
            "bufferView" : 9,
            "componentType" : 5126,
            "count" : 24,
            "type" : "VEC3"
        },
        {
            "bufferView" : 10,
            "componentType" : 5126,
            "count" : 24,
            "type" : "VEC2"
        },
        {
            "bufferView" : 11,
            "componentType" : 5123,
            "count" : 36,
            "type" : "SCALAR"
        },
        {
            "bufferView" : 12,
            "componentType" : 5126,
            "count" : 24,
            "max" : [
                -0.04428130388259888,
                0.9932132959365845,
                38.83160400390625
            ],
            "min" : [
                -1.1609163284301758,
                -1.0797423124313354,
                -602.8032836914062
            ],
            "type" : "VEC3"
        },
        {
            "bufferView" : 13,
            "componentType" : 5126,
            "count" : 24,
            "type" : "VEC3"
        },
        {
            "bufferView" : 14,
            "componentType" : 5126,
            "count" : 24,
            "type" : "VEC2"
        },
        {
            "bufferView" : 15,
            "componentType" : 5123,
            "count" : 36,
            "type" : "SCALAR"
        },
        {
            "bufferView" : 16,
            "componentType" : 5126,
            "count" : 28,
            "max" : [
                0.5695889592170715,
                1.0690873861312866,
                46.160308837890625
            ],
            "min" : [
                -0.6908288598060608,
                -1.3043830394744873,
                -611.3758544921875
            ],
            "type" : "VEC3"
        },
        {
            "bufferView" : 17,
            "componentType" : 5126,
            "count" : 28,
            "type" : "VEC3"
        },
        {
            "bufferView" : 18,
            "componentType" : 5126,
            "count" : 28,
            "type" : "VEC2"
        },
        {
            "bufferView" : 19,
            "componentType" : 5123,
            "count" : 42,
            "type" : "SCALAR"
        },
        {
            "bufferView" : 20,
            "componentType" : 5126,
            "count" : 128,
            "max" : [
                0.9646351933479309,
                1.0038416385650635,
                -581.8217163085938
            ],
            "min" : [
                -1.0353646278381348,
                -0.9961581826210022,
                -587.8284301757812
            ],
            "type" : "VEC3"
        },
        {
            "bufferView" : 21,
            "componentType" : 5126,
            "count" : 128,
            "type" : "VEC3"
        },
        {
            "bufferView" : 22,
            "componentType" : 5126,
            "count" : 128,
            "type" : "VEC2"
        },
        {
            "bufferView" : 23,
            "componentType" : 5123,
            "count" : 186,
            "type" : "SCALAR"
        },
        {
            "bufferView" : 24,
            "componentType" : 5126,
            "count" : 24,
            "max" : [
                0.12258323282003403,
                0.033527106046676636,
                36.537208557128906
            ],
            "min" : [
                -0.20700672268867493,
                -0.6979403495788574,
                10.963460922241211
            ],
            "type" : "VEC3"
        },
        {
            "bufferView" : 25,
            "componentType" : 5126,
            "count" : 24,
            "type" : "VEC3"
        },
        {
            "bufferView" : 26,
            "componentType" : 5126,
            "count" : 24,
            "type" : "VEC2"
        },
        {
            "bufferView" : 27,
            "componentType" : 5126,
            "count" : 24,
            "max" : [
                0.704737663269043,
                -1.4006789922714233,
                64.70642852783203
            ],
            "min" : [
                0.3751477003097534,
                -1.7218228578567505,
                39.13268280029297
            ],
            "type" : "VEC3"
        },
        {
            "bufferView" : 28,
            "componentType" : 5126,
            "count" : 24,
            "type" : "VEC3"
        },
        {
            "bufferView" : 29,
            "componentType" : 5126,
            "count" : 24,
            "type" : "VEC2"
        },
        {
            "bufferView" : 30,
            "componentType" : 5126,
            "count" : 72,
            "max" : [
                0.2517724633216858,
                0.029163092374801636,
                44.97157669067383
            ],
            "min" : [
                -0.3704274296760559,
                -0.6987297534942627,
                -607.9138793945312
            ],
            "type" : "VEC3"
        },
        {
            "bufferView" : 31,
            "componentType" : 5126,
            "count" : 72,
            "type" : "VEC3"
        },
        {
            "bufferView" : 32,
            "componentType" : 5126,
            "count" : 72,
            "type" : "VEC2"
        },
        {
            "bufferView" : 33,
            "componentType" : 5123,
            "count" : 108,
            "type" : "SCALAR"
        },
        {
            "bufferView" : 34,
            "componentType" : 5126,
            "count" : 24,
            "max" : [
                -0.43383756279945374,
                -1.0945318937301636,
                56.102169036865234
            ],
            "min" : [
                -0.826661229133606,
                -1.718697428703308,
                25.621952056884766
            ],
            "type" : "VEC3"
        },
        {
            "bufferView" : 35,
            "componentType" : 5126,
            "count" : 24,
            "type" : "VEC3"
        },
        {
            "bufferView" : 36,
            "componentType" : 5126,
            "count" : 24,
            "type" : "VEC2"
        }
    ],
    "bufferViews" : [
        {
            "buffer" : 0,
            "byteLength" : 1536,
            "byteOffset" : 0
        },
        {
            "buffer" : 0,
            "byteLength" : 1536,
            "byteOffset" : 1536
        },
        {
            "buffer" : 0,
            "byteLength" : 1024,
            "byteOffset" : 3072
        },
        {
            "buffer" : 0,
            "byteLength" : 372,
            "byteOffset" : 4096
        },
        {
            "buffer" : 0,
            "byteLength" : 288,
            "byteOffset" : 4468
        },
        {
            "buffer" : 0,
            "byteLength" : 288,
            "byteOffset" : 4756
        },
        {
            "buffer" : 0,
            "byteLength" : 192,
            "byteOffset" : 5044
        },
        {
            "buffer" : 0,
            "byteLength" : 72,
            "byteOffset" : 5236
        },
        {
            "buffer" : 0,
            "byteLength" : 288,
            "byteOffset" : 5308
        },
        {
            "buffer" : 0,
            "byteLength" : 288,
            "byteOffset" : 5596
        },
        {
            "buffer" : 0,
            "byteLength" : 192,
            "byteOffset" : 5884
        },
        {
            "buffer" : 0,
            "byteLength" : 72,
            "byteOffset" : 6076
        },
        {
            "buffer" : 0,
            "byteLength" : 288,
            "byteOffset" : 6148
        },
        {
            "buffer" : 0,
            "byteLength" : 288,
            "byteOffset" : 6436
        },
        {
            "buffer" : 0,
            "byteLength" : 192,
            "byteOffset" : 6724
        },
        {
            "buffer" : 0,
            "byteLength" : 72,
            "byteOffset" : 6916
        },
        {
            "buffer" : 0,
            "byteLength" : 336,
            "byteOffset" : 6988
        },
        {
            "buffer" : 0,
            "byteLength" : 336,
            "byteOffset" : 7324
        },
        {
            "buffer" : 0,
            "byteLength" : 224,
            "byteOffset" : 7660
        },
        {
            "buffer" : 0,
            "byteLength" : 84,
            "byteOffset" : 7884
        },
        {
            "buffer" : 0,
            "byteLength" : 1536,
            "byteOffset" : 7968
        },
        {
            "buffer" : 0,
            "byteLength" : 1536,
            "byteOffset" : 9504
        },
        {
            "buffer" : 0,
            "byteLength" : 1024,
            "byteOffset" : 11040
        },
        {
            "buffer" : 0,
            "byteLength" : 372,
            "byteOffset" : 12064
        },
        {
            "buffer" : 0,
            "byteLength" : 288,
            "byteOffset" : 12436
        },
        {
            "buffer" : 0,
            "byteLength" : 288,
            "byteOffset" : 12724
        },
        {
            "buffer" : 0,
            "byteLength" : 192,
            "byteOffset" : 13012
        },
        {
            "buffer" : 0,
            "byteLength" : 288,
            "byteOffset" : 13204
        },
        {
            "buffer" : 0,
            "byteLength" : 288,
            "byteOffset" : 13492
        },
        {
            "buffer" : 0,
            "byteLength" : 192,
            "byteOffset" : 13780
        },
        {
            "buffer" : 0,
            "byteLength" : 864,
            "byteOffset" : 13972
        },
        {
            "buffer" : 0,
            "byteLength" : 864,
            "byteOffset" : 14836
        },
        {
            "buffer" : 0,
            "byteLength" : 576,
            "byteOffset" : 15700
        },
        {
            "buffer" : 0,
            "byteLength" : 216,
            "byteOffset" : 16276
        },
        {
            "buffer" : 0,
            "byteLength" : 288,
            "byteOffset" : 16492
        },
        {
            "buffer" : 0,
            "byteLength" : 288,
            "byteOffset" : 16780
        },
        {
            "buffer" : 0,
            "byteLength" : 192,
            "byteOffset" : 17068
        }
    ],
    "buffers" : [
        {
            "byteLength" : 17260,
            "uri" : "data:application/octet-stream;base64,"
        }
    ]
}
