{
    "asset" : {
        "generator" : "Khronos glTF Blender I/O v1.8.19",
        "version" : "2.0"
    },
    "scene" : 0,
    "scenes" : [
        {
            "name" : "Scene",
            "nodes" : [
                0
            ]
        }
    ],
    "nodes" : [
        {
            "mesh" : 0,
            "name" : "Plane.005"
        }
    ],
    "materials" : [
        {
            "doubleSided" : true,
            "name" : "Material.005",
            "pbrMetallicRoughness" : {
                "baseColorFactor" : [
                    0.7379106283187866,
                    0.4772130846977234,
                    0.20880497992038727,
                    1
                ],
                "metallicFactor" : 0,
                "roughnessFactor" : 0.5
            }
        },
        {
            "doubleSided" : true,
            "name" : "planeColor",
            "pbrMetallicRoughness" : {
                "baseColorFactor" : [
                    0.9624950885772705,
                    0.7071287035942078,
                    0.37027066946029663,
                    1
                ],
                "metallicFactor" : 0,
                "roughnessFactor" : 0.5
            }
        },
        {
            "doubleSided" : true,
            "name" : "Material.001",
            "pbrMetallicRoughness" : {
                "baseColorFactor" : [
                    0.7379106283187866,
                    0.4771682918071747,
                    0.35313642024993896,
                    1
                ],
                "metallicFactor" : 0,
                "roughnessFactor" : 0.5
            }
        },
        {
            "doubleSided" : true,
            "name" : "Material",
            "pbrMetallicRoughness" : {
                "baseColorFactor" : [
                    0.7379106283187866,
                    0.5311214327812195,
                    0.4628457725048065,
                    1
                ],
                "metallicFactor" : 0,
                "roughnessFactor" : 0.5
            }
        },
        {
            "doubleSided" : true,
            "name" : "Material.002",
            "pbrMetallicRoughness" : {
                "baseColorFactor" : [
                    0.7379106283187866,
                    0.5933939218521118,
                    0.3961547613143921,
                    1
                ],
                "metallicFactor" : 0,
                "roughnessFactor" : 0.5
            }
        },
        {
            "doubleSided" : true,
            "name" : "Material.004",
            "pbrMetallicRoughness" : {
                "baseColorFactor" : [
                    0.7379106283187866,
                    0.572245180606842,
                    0.41391173005104065,
                    1
                ],
                "metallicFactor" : 0,
                "roughnessFactor" : 0.5
            }
        },
        {
            "doubleSided" : true,
            "name" : "Material.003",
            "pbrMetallicRoughness" : {
                "baseColorFactor" : [
                    0.7379106283187866,
                    0.48715940117836,
                    0.39153826236724854,
                    1
                ],
                "metallicFactor" : 0,
                "roughnessFactor" : 0.5
            }
        }
    ],
    "meshes" : [
        {
            "name" : "Plane.005",
            "primitives" : [
                {
                    "attributes" : {
                        "POSITION" : 0,
                        "NORMAL" : 1,
                        "TEXCOORD_0" : 2
                    },
                    "indices" : 3,
                    "material" : 0
                },
                {
                    "attributes" : {
                        "POSITION" : 4,
                        "NORMAL" : 5,
                        "TEXCOORD_0" : 6
                    },
                    "indices" : 7,
                    "material" : 1
                },
                {
                    "attributes" : {
                        "POSITION" : 8,
                        "NORMAL" : 9,
                        "TEXCOORD_0" : 10
                    },
                    "indices" : 11,
                    "material" : 2
                },
                {
                    "attributes" : {
                        "POSITION" : 12,
                        "NORMAL" : 13,
                        "TEXCOORD_0" : 14
                    },
                    "indices" : 15,
                    "material" : 3
                },
                {
                    "attributes" : {
                        "POSITION" : 16,
                        "NORMAL" : 17,
                        "TEXCOORD_0" : 18
                    },
                    "indices" : 19,
                    "material" : 4
                },
                {
                    "attributes" : {
                        "POSITION" : 20,
                        "NORMAL" : 21,
                        "TEXCOORD_0" : 22
                    },
                    "indices" : 23,
                    "material" : 5
                },
                {
                    "attributes" : {
                        "POSITION" : 24,
                        "NORMAL" : 25,
                        "TEXCOORD_0" : 26
                    },
                    "indices" : 23,
                    "material" : 6
                }
            ]
        }
    ],
    "accessors" : [
        {
            "bufferView" : 0,
            "componentType" : 5126,
            "count" : 256,
            "max" : [
                -0.20953254401683807,
                0.05497486889362335,
                0.38784581422805786
            ],
            "min" : [
                -0.5230081081390381,
                -0.1443260908126831,
                0.16982528567314148
            ],
            "type" : "VEC3"
        },
        {
            "bufferView" : 1,
            "componentType" : 5126,
            "count" : 256,
            "type" : "VEC3"
        },
        {
            "bufferView" : 2,
            "componentType" : 5126,
            "count" : 256,
            "type" : "VEC2"
        },
        {
            "bufferView" : 3,
            "componentType" : 5123,
            "count" : 384,
            "type" : "SCALAR"
        },
        {
            "bufferView" : 4,
            "componentType" : 5126,
            "count" : 3476,
            "max" : [
                2.394489049911499,
                4.870733737945557,
                1.3573851585388184
            ],
            "min" : [
                -1.1359572410583496,
                -0.13388177752494812,
                -2.0823163986206055
            ],
            "type" : "VEC3"
        },
        {
            "bufferView" : 5,
            "componentType" : 5126,
            "count" : 3476,
            "type" : "VEC3"
        },
        {
            "bufferView" : 6,
            "componentType" : 5126,
            "count" : 3476,
            "type" : "VEC2"
        },
        {
            "bufferView" : 7,
            "componentType" : 5123,
            "count" : 5214,
            "type" : "SCALAR"
        },
        {
            "bufferView" : 8,
            "componentType" : 5126,
            "count" : 256,
            "max" : [
                1.2530806064605713,
                1.0167559385299683,
                -0.16318067908287048
            ],
            "min" : [
                -0.839860200881958,
                -0.8311855792999268,
                -1.6798738241195679
            ],
            "type" : "VEC3"
        },
        {
            "bufferView" : 9,
            "componentType" : 5126,
            "count" : 256,
            "type" : "VEC3"
        },
        {
            "bufferView" : 10,
            "componentType" : 5126,
            "count" : 256,
            "type" : "VEC2"
        },
        {
            "bufferView" : 11,
            "componentType" : 5123,
            "count" : 384,
            "type" : "SCALAR"
        },
        {
            "bufferView" : 12,
            "componentType" : 5126,
            "count" : 256,
            "max" : [
                2.1395745277404785,
                0.11202360689640045,
                -0.3156365752220154
            ],
            "min" : [
                0.7232441902160645,
                -0.5017335414886475,
                -1.415123701095581
            ],
            "type" : "VEC3"
        },
        {
            "bufferView" : 13,
            "componentType" : 5126,
            "count" : 256,
            "type" : "VEC3"
        },
        {
            "bufferView" : 14,
            "componentType" : 5126,
            "count" : 256,
            "type" : "VEC2"
        },
        {
            "bufferView" : 15,
            "componentType" : 5123,
            "count" : 384,
            "type" : "SCALAR"
        },
        {
            "bufferView" : 16,
            "componentType" : 5126,
            "count" : 256,
            "max" : [
                1.5497677326202393,
                -0.06651639938354492,
                0.1531926393508911
            ],
            "min" : [
                1.1941968202590942,
                -0.25089433789253235,
                -0.3022427558898926
            ],
            "type" : "VEC3"
        },
        {
            "bufferView" : 17,
            "componentType" : 5126,
            "count" : 256,
            "type" : "VEC3"
        },
        {
            "bufferView" : 18,
            "componentType" : 5126,
            "count" : 256,
            "type" : "VEC2"
        },
        {
            "bufferView" : 19,
            "componentType" : 5123,
            "count" : 384,
            "type" : "SCALAR"
        },
        {
            "bufferView" : 20,
            "componentType" : 5126,
            "count" : 256,
            "max" : [
                0.7014708518981934,
                -0.0077500734478235245,
                0.4827617406845093
            ],
            "min" : [
                0.43098384141921997,
                -0.13518309593200684,
                0.24268203973770142
            ],
            "type" : "VEC3"
        },
        {
            "bufferView" : 21,
            "componentType" : 5126,
            "count" : 256,
            "type" : "VEC3"
        },
        {
            "bufferView" : 22,
            "componentType" : 5126,
            "count" : 256,
            "type" : "VEC2"
        },
        {
            "bufferView" : 23,
            "componentType" : 5123,
            "count" : 384,
            "type" : "SCALAR"
        },
        {
            "bufferView" : 24,
            "componentType" : 5126,
            "count" : 256,
            "max" : [
                0.7987898588180542,
                0.01031515933573246,
                -0.008371442556381226
            ],
            "min" : [
                0.5283029079437256,
                -0.11711785942316055,
                -0.2484511137008667
            ],
            "type" : "VEC3"
        },
        {
            "bufferView" : 25,
            "componentType" : 5126,
            "count" : 256,
            "type" : "VEC3"
        },
        {
            "bufferView" : 26,
            "componentType" : 5126,
            "count" : 256,
            "type" : "VEC2"
        }
    ],
    "bufferViews" : [
        {
            "buffer" : 0,
            "byteLength" : 3072,
            "byteOffset" : 0
        },
        {
            "buffer" : 0,
            "byteLength" : 3072,
            "byteOffset" : 3072
        },
        {
            "buffer" : 0,
            "byteLength" : 2048,
            "byteOffset" : 6144
        },
        {
            "buffer" : 0,
            "byteLength" : 768,
            "byteOffset" : 8192
        },
        {
            "buffer" : 0,
            "byteLength" : 41712,
            "byteOffset" : 8960
        },
        {
            "buffer" : 0,
            "byteLength" : 41712,
            "byteOffset" : 50672
        },
        {
            "buffer" : 0,
            "byteLength" : 27808,
            "byteOffset" : 92384
        },
        {
            "buffer" : 0,
            "byteLength" : 10428,
            "byteOffset" : 120192
        },
        {
            "buffer" : 0,
            "byteLength" : 3072,
            "byteOffset" : 130620
        },
        {
            "buffer" : 0,
            "byteLength" : 3072,
            "byteOffset" : 133692
        },
        {
            "buffer" : 0,
            "byteLength" : 2048,
            "byteOffset" : 136764
        },
        {
            "buffer" : 0,
            "byteLength" : 768,
            "byteOffset" : 138812
        },
        {
            "buffer" : 0,
            "byteLength" : 3072,
            "byteOffset" : 139580
        },
        {
            "buffer" : 0,
            "byteLength" : 3072,
            "byteOffset" : 142652
        },
        {
            "buffer" : 0,
            "byteLength" : 2048,
            "byteOffset" : 145724
        },
        {
            "buffer" : 0,
            "byteLength" : 768,
            "byteOffset" : 147772
        },
        {
            "buffer" : 0,
            "byteLength" : 3072,
            "byteOffset" : 148540
        },
        {
            "buffer" : 0,
            "byteLength" : 3072,
            "byteOffset" : 151612
        },
        {
            "buffer" : 0,
            "byteLength" : 2048,
            "byteOffset" : 154684
        },
        {
            "buffer" : 0,
            "byteLength" : 768,
            "byteOffset" : 156732
        },
        {
            "buffer" : 0,
            "byteLength" : 3072,
            "byteOffset" : 157500
        },
        {
            "buffer" : 0,
            "byteLength" : 3072,
            "byteOffset" : 160572
        },
        {
            "buffer" : 0,
            "byteLength" : 2048,
            "byteOffset" : 163644
        },
        {
            "buffer" : 0,
            "byteLength" : 768,
            "byteOffset" : 165692
        },
        {
            "buffer" : 0,
            "byteLength" : 3072,
            "byteOffset" : 166460
        },
        {
            "buffer" : 0,
            "byteLength" : 3072,
            "byteOffset" : 169532
        },
        {
            "buffer" : 0,
            "byteLength" : 2048,
            "byteOffset" : 172604
        }
    ],
    "buffers" : [
        {
            "byteLength" : 174652,
            "uri" : "data:application/octet-stream;base64,"
        }
    ]
}
