{
    "asset" : {
        "generator" : "Khronos glTF Blender I/O v1.7.33",
        "version" : "2.0"
    },
    "scene" : 0,
    "scenes" : [
        {
            "name" : "Scene",
            "nodes" : [
                0
            ]
        }
    ],
    "nodes" : [
        {
            "mesh" : 0,
            "name" : "Plane.001",
            "rotation" : [
                0.9988590478897095,
                -0.028281178325414658,
                0.03796590492129326,
                -0.0062757451087236404
            ],
            "scale" : [
                0.45994699001312256,
                0.45994704961776733,
                0.4599469304084778
            ],
            "translation" : [
                -0.0003290272143203765,
                -0.0031415068078786135,
                -2.7624777430901304e-05
            ]
        }
    ],
    "materials" : [
        {
            "doubleSided" : true,
            "name" : "planeColor",
            "pbrMetallicRoughness" : {
                "baseColorFactor" : [
                    0.8000000715255737,
                    0.7658908367156982,
                    0.5307791829109192,
                    1
                ],
                "metallicFactor" : 0,
                "roughnessFactor" : 0.5
            }
        }
    ],
    "meshes" : [
        {
            "name" : "Plane.001",
            "primitives" : [
                {
                    "attributes" : {
                        "POSITION" : 0,
                        "NORMAL" : 1,
                        "TEXCOORD_0" : 2
                    },
                    "indices" : 3,
                    "material" : 0
                }
            ]
        }
    ],
    "accessors" : [
        {
            "bufferView" : 0,
            "componentType" : 5126,
            "count" : 2315,
            "max" : [
                1.4963775873184204,
                0.08355814963579178,
                1.3180840015411377
            ],
            "min" : [
                -1.3252314329147339,
                -4.0366363525390625,
                -1.4538511037826538
            ],
            "type" : "VEC3"
        },
        {
            "bufferView" : 1,
            "componentType" : 5126,
            "count" : 2315,
            "type" : "VEC3"
        },
        {
            "bufferView" : 2,
            "componentType" : 5126,
            "count" : 2315,
            "type" : "VEC2"
        },
        {
            "bufferView" : 3,
            "componentType" : 5123,
            "count" : 5214,
            "type" : "SCALAR"
        }
    ],
    "bufferViews" : [
        {
            "buffer" : 0,
            "byteLength" : 27780,
            "byteOffset" : 0
        },
        {
            "buffer" : 0,
            "byteLength" : 27780,
            "byteOffset" : 27780
        },
        {
            "buffer" : 0,
            "byteLength" : 18520,
            "byteOffset" : 55560
        },
        {
            "buffer" : 0,
            "byteLength" : 10428,
            "byteOffset" : 74080
        }
    ],
    "buffers" : [
        {
            "byteLength" : 84508,
            "uri" : "data:application/octet-stream;base64,"
        }
    ]
}
