{
    "asset" : {
        "generator" : "Khronos glTF Blender I/O v1.7.33",
        "version" : "2.0"
    },
    "scene" : 0,
    "scenes" : [
        {
            "name" : "Scene",
            "nodes" : [
                0
            ]
        }
    ],
    "nodes" : [
        {
            "mesh" : 0,
            "name" : "Plane.001",
            "rotation" : [
                0.9988590478897095,
                -0.028281178325414658,
                0.03796590492129326,
                -0.0062757451087236404
            ],
            "scale" : [
                1.0828064680099487,
                1.0828064680099487,
                1.0828063488006592
            ],
            "translation" : [
                -0.0004618661478161812,
                -0.0044098347425460815,
                -3.8777794543420896e-05
            ]
        }
    ],
    "materials" : [
        {
            "doubleSided" : true,
            "name" : "Material",
            "pbrMetallicRoughness" : {
                "baseColorFactor" : [
                    1,
                    0.9822506904602051,
                    0.21586059033870697,
                    1
                ],
                "metallicFactor" : 0,
                "roughnessFactor" : 0.5
            }
        },
        {
            "doubleSided" : true,
            "name" : "planeColor",
            "pbrMetallicRoughness" : {
                "baseColorFactor" : [
                    1,
                    0.603827178478241,
                    0.26225075125694275,
                    1
                ],
                "metallicFactor" : 0,
                "roughnessFactor" : 0.5
            }
        }
    ],
    "meshes" : [
        {
            "name" : "Plane.001",
            "primitives" : [
                {
                    "attributes" : {
                        "POSITION" : 0,
                        "NORMAL" : 1,
                        "TEXCOORD_0" : 2
                    },
                    "indices" : 3,
                    "material" : 0
                },
                {
                    "attributes" : {
                        "POSITION" : 4,
                        "NORMAL" : 5,
                        "TEXCOORD_0" : 6
                    },
                    "indices" : 7,
                    "material" : 1
                }
            ]
        }
    ],
    "accessors" : [
        {
            "bufferView" : 0,
            "componentType" : 5126,
            "count" : 1275,
            "max" : [
                1.466411828994751,
                0.027494261041283607,
                1.2553341388702393
            ],
            "min" : [
                -1.2981749773025513,
                -0.13232918083667755,
                -1.3405921459197998
            ],
            "type" : "VEC3"
        },
        {
            "bufferView" : 1,
            "componentType" : 5126,
            "count" : 1275,
            "type" : "VEC3"
        },
        {
            "bufferView" : 2,
            "componentType" : 5126,
            "count" : 1275,
            "type" : "VEC2"
        },
        {
            "bufferView" : 3,
            "componentType" : 5123,
            "count" : 3654,
            "type" : "SCALAR"
        },
        {
            "bufferView" : 4,
            "componentType" : 5126,
            "count" : 1040,
            "max" : [
                1.49637770652771,
                0.08355815708637238,
                1.3180840015411377
            ],
            "min" : [
                -1.3252315521240234,
                -1.6889266967773438,
                -1.3711525201797485
            ],
            "type" : "VEC3"
        },
        {
            "bufferView" : 5,
            "componentType" : 5126,
            "count" : 1040,
            "type" : "VEC3"
        },
        {
            "bufferView" : 6,
            "componentType" : 5126,
            "count" : 1040,
            "type" : "VEC2"
        },
        {
            "bufferView" : 7,
            "componentType" : 5123,
            "count" : 1560,
            "type" : "SCALAR"
        }
    ],
    "bufferViews" : [
        {
            "buffer" : 0,
            "byteLength" : 15300,
            "byteOffset" : 0
        },
        {
            "buffer" : 0,
            "byteLength" : 15300,
            "byteOffset" : 15300
        },
        {
            "buffer" : 0,
            "byteLength" : 10200,
            "byteOffset" : 30600
        },
        {
            "buffer" : 0,
            "byteLength" : 7308,
            "byteOffset" : 40800
        },
        {
            "buffer" : 0,
            "byteLength" : 12480,
            "byteOffset" : 48108
        },
        {
            "buffer" : 0,
            "byteLength" : 12480,
            "byteOffset" : 60588
        },
        {
            "buffer" : 0,
            "byteLength" : 8320,
            "byteOffset" : 73068
        },
        {
            "buffer" : 0,
            "byteLength" : 3120,
            "byteOffset" : 81388
        }
    ],
    "buffers" : [
        {
            "byteLength" : 84508,
            "uri" : "data:application/octet-stream;base64,"
        }
    ]
}
