{
    "asset" : {
        "generator" : "Khronos glTF Blender I/O v1.7.33",
        "version" : "2.0"
    },
    "scene" : 0,
    "scenes" : [
        {
            "name" : "Scene",
            "nodes" : [
                0
            ]
        }
    ],
    "nodes" : [
        {
            "mesh" : 0,
            "name" : "Cube"
        }
    ],
    "materials" : [
        {
            "doubleSided" : true,
            "name" : "tree",
            "pbrMetallicRoughness" : {
                "baseColorFactor" : [
                    0.6038274765014648,
                    0.42869052290916443,
                    0.18447506427764893,
                    1
                ],
                "metallicFactor" : 0,
                "roughnessFactor" : 0.4000000059604645
            }
        },
        {
            "doubleSided" : true,
            "name" : "Material.001",
            "pbrMetallicRoughness" : {
                "baseColorFactor" : [
                    0.9046615958213806,
                    0.1912015974521637,
                    0.029556874185800552,
                    1
                ],
                "metallicFactor" : 0,
                "roughnessFactor" : 0.5
            }
        },
        {
            "doubleSided" : true,
            "name" : "Material.003",
            "pbrMetallicRoughness" : {
                "baseColorFactor" : [
                    0.9046615958213806,
                    0.1912015974521637,
                    0.029556874185800552,
                    1
                ],
                "metallicFactor" : 0,
                "roughnessFactor" : 0.5
            }
        },
        {
            "doubleSided" : true,
            "name" : "Material.002",
            "pbrMetallicRoughness" : {
                "baseColorFactor" : [
                    0.9046615958213806,
                    0.1912015974521637,
                    0.029556874185800552,
                    1
                ],
                "metallicFactor" : 0,
                "roughnessFactor" : 0.5
            }
        },
        {
            "doubleSided" : true,
            "name" : "Material.005",
            "pbrMetallicRoughness" : {
                "baseColorFactor" : [
                    0.9046615958213806,
                    0.1912015974521637,
                    0.029556874185800552,
                    1
                ],
                "metallicFactor" : 0,
                "roughnessFactor" : 0.5
            }
        },
        {
            "doubleSided" : true,
            "name" : "Material.006",
            "pbrMetallicRoughness" : {
                "baseColorFactor" : [
                    0.9046615958213806,
                    0.1912015974521637,
                    0.029556874185800552,
                    1
                ],
                "metallicFactor" : 0,
                "roughnessFactor" : 0.5
            }
        },
        {
            "doubleSided" : true,
            "name" : "Material.007",
            "pbrMetallicRoughness" : {
                "baseColorFactor" : [
                    0.9046615958213806,
                    0.1912015974521637,
                    0.029556874185800552,
                    1
                ],
                "metallicFactor" : 0,
                "roughnessFactor" : 0.5
            }
        },
        {
            "doubleSided" : true,
            "name" : "Material.004",
            "pbrMetallicRoughness" : {
                "baseColorFactor" : [
                    0.9046615958213806,
                    0.1912015974521637,
                    0.029556874185800552,
                    1
                ],
                "metallicFactor" : 0,
                "roughnessFactor" : 0.5
            }
        }
    ],
    "meshes" : [
        {
            "name" : "Cube",
            "primitives" : [
                {
                    "attributes" : {
                        "POSITION" : 0,
                        "NORMAL" : 1,
                        "TEXCOORD_0" : 2
                    },
                    "indices" : 3,
                    "material" : 0
                },
                {
                    "attributes" : {
                        "POSITION" : 4,
                        "NORMAL" : 5,
                        "TEXCOORD_0" : 6
                    },
                    "indices" : 7,
                    "material" : 1
                },
                {
                    "attributes" : {
                        "POSITION" : 8,
                        "NORMAL" : 9,
                        "TEXCOORD_0" : 10
                    },
                    "indices" : 11,
                    "material" : 2
                },
                {
                    "attributes" : {
                        "POSITION" : 12,
                        "NORMAL" : 13,
                        "TEXCOORD_0" : 14
                    },
                    "indices" : 15,
                    "material" : 3
                },
                {
                    "attributes" : {
                        "POSITION" : 16,
                        "NORMAL" : 17,
                        "TEXCOORD_0" : 18
                    },
                    "indices" : 19,
                    "material" : 4
                },
                {
                    "attributes" : {
                        "POSITION" : 20,
                        "NORMAL" : 21,
                        "TEXCOORD_0" : 22
                    },
                    "indices" : 19,
                    "material" : 5
                },
                {
                    "attributes" : {
                        "POSITION" : 23,
                        "NORMAL" : 24,
                        "TEXCOORD_0" : 25
                    },
                    "indices" : 19,
                    "material" : 6
                },
                {
                    "attributes" : {
                        "POSITION" : 26,
                        "NORMAL" : 27,
                        "TEXCOORD_0" : 28
                    },
                    "indices" : 19,
                    "material" : 7
                }
            ]
        }
    ],
    "accessors" : [
        {
            "bufferView" : 0,
            "componentType" : 5126,
            "count" : 64,
            "max" : [
                0.597610592842102,
                1.8673901557922363,
                0.686203122138977
            ],
            "min" : [
                -0.6221858263015747,
                -0.5841142535209656,
                -0.564398467540741
            ],
            "type" : "VEC3"
        },
        {
            "bufferView" : 1,
            "componentType" : 5126,
            "count" : 64,
            "type" : "VEC3"
        },
        {
            "bufferView" : 2,
            "componentType" : 5126,
            "count" : 64,
            "type" : "VEC2"
        },
        {
            "bufferView" : 3,
            "componentType" : 5123,
            "count" : 96,
            "type" : "SCALAR"
        },
        {
            "bufferView" : 4,
            "componentType" : 5126,
            "count" : 96,
            "max" : [
                2.9858059883117676,
                7.541082382202148,
                2.880358934402466
            ],
            "min" : [
                -2.9668495655059814,
                1.7371479272842407,
                -2.814286947250366
            ],
            "type" : "VEC3"
        },
        {
            "bufferView" : 5,
            "componentType" : 5126,
            "count" : 96,
            "type" : "VEC3"
        },
        {
            "bufferView" : 6,
            "componentType" : 5126,
            "count" : 96,
            "type" : "VEC2"
        },
        {
            "bufferView" : 7,
            "componentType" : 5123,
            "count" : 144,
            "type" : "SCALAR"
        },
        {
            "bufferView" : 8,
            "componentType" : 5126,
            "count" : 96,
            "max" : [
                2.9122657775878906,
                6.926556587219238,
                -1.7977544069290161
            ],
            "min" : [
                1.0507408380508423,
                5.5788421630859375,
                -3.4089949131011963
            ],
            "type" : "VEC3"
        },
        {
            "bufferView" : 9,
            "componentType" : 5126,
            "count" : 96,
            "type" : "VEC3"
        },
        {
            "bufferView" : 10,
            "componentType" : 5126,
            "count" : 96,
            "type" : "VEC2"
        },
        {
            "bufferView" : 11,
            "componentType" : 5123,
            "count" : 144,
            "type" : "SCALAR"
        },
        {
            "bufferView" : 12,
            "componentType" : 5126,
            "count" : 96,
            "max" : [
                -0.6949277520179749,
                8.245250701904297,
                3.7424848079681396
            ],
            "min" : [
                -3.2075793743133545,
                4.663500785827637,
                1.237795114517212
            ],
            "type" : "VEC3"
        },
        {
            "bufferView" : 13,
            "componentType" : 5126,
            "count" : 96,
            "type" : "VEC3"
        },
        {
            "bufferView" : 14,
            "componentType" : 5126,
            "count" : 96,
            "type" : "VEC2"
        },
        {
            "bufferView" : 15,
            "componentType" : 5123,
            "count" : 144,
            "type" : "SCALAR"
        },
        {
            "bufferView" : 16,
            "componentType" : 5126,
            "count" : 96,
            "max" : [
                2.4638683795928955,
                7.668681621551514,
                1.6916595697402954
            ],
            "min" : [
                2.120021343231201,
                7.265326023101807,
                1.2808558940887451
            ],
            "type" : "VEC3"
        },
        {
            "bufferView" : 17,
            "componentType" : 5126,
            "count" : 96,
            "type" : "VEC3"
        },
        {
            "bufferView" : 18,
            "componentType" : 5126,
            "count" : 96,
            "type" : "VEC2"
        },
        {
            "bufferView" : 19,
            "componentType" : 5123,
            "count" : 144,
            "type" : "SCALAR"
        },
        {
            "bufferView" : 20,
            "componentType" : 5126,
            "count" : 96,
            "max" : [
                2.154751777648926,
                7.15074348449707,
                1.2166156768798828
            ],
            "min" : [
                1.9663078784942627,
                6.929686546325684,
                0.9914765357971191
            ],
            "type" : "VEC3"
        },
        {
            "bufferView" : 21,
            "componentType" : 5126,
            "count" : 96,
            "type" : "VEC3"
        },
        {
            "bufferView" : 22,
            "componentType" : 5126,
            "count" : 96,
            "type" : "VEC2"
        },
        {
            "bufferView" : 23,
            "componentType" : 5126,
            "count" : 96,
            "max" : [
                -2.5177032947540283,
                6.951961994171143,
                -1.940266728401184
            ],
            "min" : [
                -2.7061469554901123,
                6.730905055999756,
                -2.165405750274658
            ],
            "type" : "VEC3"
        },
        {
            "bufferView" : 24,
            "componentType" : 5126,
            "count" : 96,
            "type" : "VEC3"
        },
        {
            "bufferView" : 25,
            "componentType" : 5126,
            "count" : 96,
            "type" : "VEC2"
        },
        {
            "bufferView" : 26,
            "componentType" : 5126,
            "count" : 96,
            "max" : [
                3.5127317905426025,
                6.099330902099609,
                -2.190873622894287
            ],
            "min" : [
                3.168884754180908,
                5.695974826812744,
                -2.601677417755127
            ],
            "type" : "VEC3"
        },
        {
            "bufferView" : 27,
            "componentType" : 5126,
            "count" : 96,
            "type" : "VEC3"
        },
        {
            "bufferView" : 28,
            "componentType" : 5126,
            "count" : 96,
            "type" : "VEC2"
        }
    ],
    "bufferViews" : [
        {
            "buffer" : 0,
            "byteLength" : 768,
            "byteOffset" : 0
        },
        {
            "buffer" : 0,
            "byteLength" : 768,
            "byteOffset" : 768
        },
        {
            "buffer" : 0,
            "byteLength" : 512,
            "byteOffset" : 1536
        },
        {
            "buffer" : 0,
            "byteLength" : 192,
            "byteOffset" : 2048
        },
        {
            "buffer" : 0,
            "byteLength" : 1152,
            "byteOffset" : 2240
        },
        {
            "buffer" : 0,
            "byteLength" : 1152,
            "byteOffset" : 3392
        },
        {
            "buffer" : 0,
            "byteLength" : 768,
            "byteOffset" : 4544
        },
        {
            "buffer" : 0,
            "byteLength" : 288,
            "byteOffset" : 5312
        },
        {
            "buffer" : 0,
            "byteLength" : 1152,
            "byteOffset" : 5600
        },
        {
            "buffer" : 0,
            "byteLength" : 1152,
            "byteOffset" : 6752
        },
        {
            "buffer" : 0,
            "byteLength" : 768,
            "byteOffset" : 7904
        },
        {
            "buffer" : 0,
            "byteLength" : 288,
            "byteOffset" : 8672
        },
        {
            "buffer" : 0,
            "byteLength" : 1152,
            "byteOffset" : 8960
        },
        {
            "buffer" : 0,
            "byteLength" : 1152,
            "byteOffset" : 10112
        },
        {
            "buffer" : 0,
            "byteLength" : 768,
            "byteOffset" : 11264
        },
        {
            "buffer" : 0,
            "byteLength" : 288,
            "byteOffset" : 12032
        },
        {
            "buffer" : 0,
            "byteLength" : 1152,
            "byteOffset" : 12320
        },
        {
            "buffer" : 0,
            "byteLength" : 1152,
            "byteOffset" : 13472
        },
        {
            "buffer" : 0,
            "byteLength" : 768,
            "byteOffset" : 14624
        },
        {
            "buffer" : 0,
            "byteLength" : 288,
            "byteOffset" : 15392
        },
        {
            "buffer" : 0,
            "byteLength" : 1152,
            "byteOffset" : 15680
        },
        {
            "buffer" : 0,
            "byteLength" : 1152,
            "byteOffset" : 16832
        },
        {
            "buffer" : 0,
            "byteLength" : 768,
            "byteOffset" : 17984
        },
        {
            "buffer" : 0,
            "byteLength" : 1152,
            "byteOffset" : 18752
        },
        {
            "buffer" : 0,
            "byteLength" : 1152,
            "byteOffset" : 19904
        },
        {
            "buffer" : 0,
            "byteLength" : 768,
            "byteOffset" : 21056
        },
        {
            "buffer" : 0,
            "byteLength" : 1152,
            "byteOffset" : 21824
        },
        {
            "buffer" : 0,
            "byteLength" : 1152,
            "byteOffset" : 22976
        },
        {
            "buffer" : 0,
            "byteLength" : 768,
            "byteOffset" : 24128
        }
    ],
    "buffers" : [
        {
            "byteLength" : 24896,
            "uri" : "data:application/octet-stream;base64,"
        }
    ]
}
